<svg viewBox="0 0 3300 1500" version="1.1" xmlns="http://www.w3.org/2000/svg" id="logo">
  
  <defs>
    <style>
      .st0 {
        fill: #fff;
      }
    </style>
  </defs>
  <path d="M648.5,735.8l-132,44-87,323h76l19-71h88l19,71h115l-97-368-1,1ZM532.5,950.8l36-135,36,135h-72Z" class="st0"></path>
  <path d="M2716.5,758.8l107,35v70s-67-21-99-33c-49-18-68,43-33,58,48,21,80,36,127,58,79,37,78,156-25,158h-202v-60h139c22,0,28-28,3-37-31-11-64-25-96-35-77-24-101-78-85-136,18-69,104-93,165-78h-1Z" class="st0"></path>
  <polyline points="1924.5 1105.8 1924.5 490.8 2061.5 536.9 2061.5 1020.8 2180.5 1020.8 2180.5 1103.8 1924.5 1103.8" class="st0"></polyline>
  <path d="M2414.5,655.8c26,9,52,17,77,26v288c0,93-70,155-132,155s-140-72-140-140v-395c40,14,80,27,121,41v352c0,49,75,54,75-2v-325h-1Z" class="st0"></path>
  <polygon points="1023.5 1103.8 1092.5 1103.8 1092.5 586.9 1016.5 611.9 1016.5 833.8 915.5 645.8 813.5 680.8 813.5 1103.8 890.5 1103.8 890.5 855.8 1023.5 1103.8" class="st0"></polygon>
  <polygon points="1565.5 1103.8 1840.5 1103.8 1565.5 1103.8 1565.5 462.8 1840.5 462.8 1840.5 546.9 1712.5 546.9 1712.5 747.8 1826.5 747.8 1826.5 817.8 1712.5 817.8 1712.5 1019.8 1840.5 1019.8 1840.5 1103.8 1565.5 1103.8" class="st0"></polygon>
  <path d="M3067.5,1300.8H232.5v-628.9L1649.5,198.9l1417,473v629h1ZM266.5,1267.8h2767v-572L1650.5,234.8,266.5,695.8v572Z" class="st0"></path>
  <path d="M2999.5,1232.8H301.5v-511l1349-450,1349,450v511ZM334.5,1199.8h2631v-453l-1315-438.9L333.5,747.9v452h1Z" class="st0"></path>
  <path d="M1371.5,613.8v100h133v-33c0-41-40-165-170-165s-186,73-186,290,58,311,182,311,174-133,174-168v-134h-174v64h41v140c0,21-17,38-38,38s-38-17-38-38v-404c0-21,17-38,38-38s38,17,38,38v-1Z" class="st0"></path>
</svg>