<svg viewBox="0 0 2300 1440" version="1.1" xmlns="http://www.w3.org/2000/svg" id="Layer_1">
  
  <defs>
    <style>
      .st0 {
        fill: #fff;
        fill-rule: evenodd;
      }
    </style>
  </defs>
  <path d="M633.6,917.8c-134.8,204.8-302.8,262.6-421.9,262.6s-201.3-49-201.3-134.8,136.5-201.3,255.6-201.3,105,35,105,85.8-43.8,120.8-157.5,120.8-77-14-77-14c0,0,36.8,7,68.3,7,96.3,0,140-57.8,140-110.3s-70-80.5-84-80.5c-115.5,0-215.3,91-215.3,190.8s94.5,129.5,166.3,129.5,210.1-15.8,357.1-231c91-131.3,211.8-266.1,392.1-308.1-152.3,57.8-199.6,87.5-327.4,283.6h0Z" class="st0"></path>
  <path d="M512.8,1084.1c50.8,1.8,126-54.3,126-103.3s-28-38.5-40.3-38.5c-94.5,0-161,96.3-161,148.8s56,77,84,77c98,0,227.6-115.5,227.6-206.6s-26.2-52.5-45.5-52.5-21,3.5-21,8.8,10.5,10.5,15.8,10.5c64.8,0,180.3-99.8,180.3-185.6s-56-63-71.8-63c-101.5,0-164.5,82.3-225.8,166.3-59.5,82.3-171.6,190.8-302.8,222.3,134.8-49,224.1-148.8,287.1-236.3,61.3-82.3,159.3-168.1,262.6-168.1s87.5,17.5,87.5,77c0,85.8-147,194.3-211.8,194.3s-31.5-10.5-31.5-17.5c0-12.3,26.2-22.7,47.3-22.7,29.8,0,71.8,17.5,71.8,66.5,0,78.8-129.5,215.3-276.6,215.3s-98-33.3-98-78.7c0-66.5,89.3-164.6,190.8-164.6s52.5,24.5,52.5,42c0,42-64.8,113.8-147,108.5h0ZM1855.5,1047.3c-1.8,0-3.5,1.8-5.3,3.5-59.5,59.5-115.5,103.3-148.8,103.3s-31.5-7-31.5-35,0-10.5,1.8-15.8c63-1.8,152.3-43.8,152.3-89.3s-5.2-22.7-29.7-22.7c-38.5,0-98.1,38.5-134.8,78.8-59.5,68.3-105,85.8-115.5,85.8s-24.5-7,3.5-45.5l85.8-115.5h-42l-42,56c-56,75.3-99.8,106.8-122.5,106.8s-26.3-8.7,1.8-47.3l87.5-115.5h-43.8c-47.3,63-71.8,89.3-185.6,155.8l115.6-155.8h-42l-17.5,26.3c-3.5-24.5-19.2-31.5-43.8-31.5-42,0-94.5,33.3-127.8,70-52.5,56-110.3,98-141.8,98s-28-5.2-28-29.8,1.8-17.5,3.5-24.5c66.5,0,140-57.8,140-89.3s-5.3-21-29.8-21c-43.8,0-113.8,49-141.8,96.3-31.5-15.8-19.2-59.5,35-94.5h-50.8l-110.3,117.3c31.5-43.7,57.8-82.3,57.8-96.3s-7-22.7-24.5-22.7-91,45.5-124.3,85.8c61.3-54.3,110.3-75.3,115.5-75.3,10.5,0,7,10.5,1.8,17.5l-110.3,147h43.8l129.5-136.5c-5.3,26.3,7,52.5,33.3,64.8-7,10.5-10.5,22.8-10.5,33.3,0,26.3,24.5,42,50.8,42s80.5-28,126-66.5c-5.3,10.5-7,21-7,28,0,15.8,12.3,38.5,40.3,38.5s64.8-17.5,96.3-42l-36.8,54.3c-7,3.5-14,8.8-22.8,12.3-131.3,73.5-234.6,138.3-234.6,190.8s10.5,29.8,33.3,29.8c57.8,0,147.1-84,245.1-217.1l24.5-31.5c66.5-36.8,106.8-63,143.5-99.8l-15.8,21c-43.8,59.5,0,77,19.2,77s54.3-21,82.3-47.3c-8.7,29.8,8.8,47.3,31.5,47.3s66.5-28,99.8-57.8c-3.4,6.5-5.2,13.7-5.2,21,0,29.8,19.2,43.8,43.8,43.8s59.5-15.8,94.5-40.3c19.2-14,40.3-29.8,61.3-49l-57.8,84h38.5l267.8-386.9c-15.8,15.8-115.6,157.6-222.3,266.1h0ZM1774.9,1003.5c19.3,0,17.5,10.5,17.5,15.8,0,33.3-64.8,75.3-119,77,14-52.5,71.8-92.8,101.5-92.8h0ZM1092.2,1003.5c19.3,0,19.3,15.8,19.3,19.3,0,40.3-70,71.8-105,73.5,14-54.2,63-92.8,85.8-92.8ZM1193.8,1152.4c-12.2,0-22.7-1.8-22.7-28,0-54.3,63-122.5,110.3-122.5s35,21,35,31.5c0,63-85.8,119-122.5,119ZM1172.8,1264.4c-54.3,77-122.5,147-164.5,147s-19.3-3.5-19.3-15.8c0-54.3,106.8-127.8,220.6-192.6,3.5-1.8,5.3-1.8,8.8-3.5l-45.5,64.8Z" class="st0"></path>
  <path d="M2055,944h-400.9l15.8-22.8c8.7,8.8,14,10.5,43.7,10.5,28,1.8,341.4,10.5,341.4,10.5,3.5,0,3.5,1.7,0,1.7ZM2188.1,1005.3c-14,10.5-52.5,71.8-126,71.8s-42-14-42-38.5c0-61.3,91-108.5,157.5-108.5s87.5,5.2,87.5,77-89.3,157.5-178.6,157.5-98-24.5-169.8-24.5-119,42-129.5,68.3c5.2-12.3,36.8-52.5,117.3-52.5s103.3,26.3,161,26.3c94.5,0,224.1-85.8,224.1-176.8s-28-85.8-98-85.8-190.8,64.8-190.8,127.8,14,42,57.7,42c66.6,0,119.1-70,129.6-84h0ZM1344.3,1313.4c0-19.2-8.8-15.8-8.8-17.5h57.8c45.5,0,52.5,38.5,52.5,50.8,0,29.8-29.7,47.3-52.5,47.3h-57.8s8.8,1.8,8.8-17.5v-63ZM1379.3,1299.4h-7c-3.5,0-5.3,1.8-5.3,3.5v77c0,5.3,1.8,10.5,7,10.5h8.7c19.3,0,38.5-15.8,38.5-45.5,0-10.5-5.3-45.5-42-45.5h0ZM1556.1,1332.6c5.3-5.2,14-8.7,24.5-8.7s33.3,12.3,33.3,35-19.2,36.8-38.5,36.8-14-1.8-19.3-7v29.8c0,15.8,5.3,14,7,14h-35s7,1.8,7-14v-75.3c0-12.3-7-12.3-8.7-12.3l29.7-7v8.7h0ZM1556.1,1381.7c1.8,5.3,5.3,8.8,12.3,8.8,12.3,0,21-10.5,21-29.8s-10.5-29.8-19.3-29.8-10.5,3.5-14,7v43.7h0ZM1731.2,1378.2c0,17.5,7,14,7,15.8h-35c1.8-1.8,7,1.8,7-15.8v-36.8c0-12.3-5.2-12.3-7-12.3l28-7v56h0ZM1718.9,1304.7c5.2,0,10.5-3.5,10.5-7s-5.2-7-10.5-7-10.5,3.5-10.5,7,5.3,7,10.5,7ZM1690.9,1383.4c0,7,5.2,7,7,7l-26.2,3.5v-8.7c-5.3,7-15.8,10.5-24.5,10.5-26.2,0-24.5-19.2-24.5-29.7v-26.3c0-15.8-5.3-14-7-14h28v47.3c0,15.8,8.8,17.5,10.5,17.5,3.5,0,14-1.8,17.5-10.5v-38.5c0-17.5-7-15.8-7-15.8h26.3v57.8h0ZM1526.4,1351.9h-54.3v3.5c0,24.5,14,33.3,26.3,33.3s17.5-5.2,22.7-10.5c-5.2,12.3-17.5,21-33.3,21-24.5,0-38.5-21-38.5-36.8,0-26.2,28-40.3,42-40.3,12.3,0,33.3,7,35,29.8ZM1491.4,1327.4c-12.2,0-15.8,12.3-17.5,21h35c0-12.2-8.7-21-17.5-21ZM1803,1376.4c0,12.3-12.3,22.8-31.5,22.8s-17.5-1.8-24.5-7v-12.3c3.5,8.8,12.2,15.8,22.7,15.8s15.8-5.2,15.8-12.2-8.8-10.5-19.2-15.8c-8.8-3.5-22.8-7-22.8-22.8s12.3-21,31.5-21,12.3,0,22.8,5.2v12.3c-10.5-14-21-14-24.5-14-7,0-12.3,5.2-12.3,10.5s5.3,10.5,19.3,15.8c3.5,1.7,22.7,7,22.7,22.7h0ZM1867.7,1397.4c1.8-1.8,5.3-1.8,5.3-14v-73.5c0-14-5.3-14-7-15.8l28-7v96.3c0,12.2,5.2,12.2,7,14h-33.3ZM2013,1395.7c10.5-24.5,40.3-77,59.5-105h-63c-1.8,0-5.2,0-8.7-3.5l-10.5,24.5c3.5-3.5,8.8-5.2,14-5.2h45.5c-3.5,5.2-17.5,31.5-33.3,56-10.5,17.5-15.8,28-19.3,33.3h15.8,0ZM1932.5,1395.7c12.3-24.5,40.3-77,59.5-105h-61.3c-3.5,0-7,0-10.5-3.5l-8.8,24.5c3.5-3.5,7-5.2,12.3-5.2h45.5c-3.5,5.2-17.5,31.5-31.5,56-12.3,17.5-17.5,28-21,33.3h15.8ZM2088.3,1393.9c14,0,26.3-12.3,26.3-33.3s-8.8-31.5-24.5-31.5-17.5,5.2-22.7,12.3l8.8-50.8h42c1.8,0,7,0,12.3-3.5l-10.5,19.3h-40.3l-5.3,24.5c7.7-5.5,16.8-8.5,26.3-8.7,22.8,0,36.8,19.2,36.8,35,0,24.5-22.7,40.3-47.3,40.3s-15.8,0-28-5.2l-1.8-14c12.3,15.7,22.8,15.7,28.1,15.7h0ZM1923.8,7.5l-15.8,7-126,120.8c-10.5-7-21-8.8-33.3-7-24.5,5.3-42,33.3-36.8,63,1.8,7,5.3,14,8.8,19.3l-388.6,392.1c-19.2-21-47.3-31.5-73.5-26.3-17.5,3.5-31.5,14-42,26.3l-269.6-210.1c5.2-12.3,8.8-28,5.2-43.8-5.2-36.8-36.8-61.3-68.3-54.3-8.8,1.8-15.8,5.3-22.8,10.5l-119-84-14-1.8,5.3,15.8,105,105c-1.8,10.5-3.5,21,0,33.3,5.3,36.8,36.8,61.3,68.3,54.3,10.5-3.5,19.2-7,26.2-14,3.5-5.2,5.3-5.2,7-3.5,0,0,99.8,87.5,134.8,117.3,35,29.8,91,73.5,101.5,82.3,10.5,10.5,24.5,21,24.5,21-5.3,15.8-7,35-3.5,52.5,10.5,50.8,54.3,82.3,98,73.5,43.8-8.8,71.8-56,61.3-106.8-1.8-8.8-5.3-17.5-10.5-26.3l383.4-400.9c10.5,8.8,24.5,14,38.5,10.5,26.3-5.3,43.8-33.3,36.8-61.3,0-5.3-1.8-8.8-3.5-12.3l117.3-136.5,5.2-15.7h0ZM894.4,397.9c-19.3,3.5-38.5-12.2-42-35-3.5-24.5,8.8-45.5,28-50.8,19.3-3.5,38.5,12.3,42,35,5.3,24.5-8.8,45.5-28,50.8ZM1300.5,702.5c-19.2,3.5-36.8-10.5-40.3-31.5-3.5-21,8.7-40.3,26.2-43.8,17.5-5.3,35,8.8,40.3,29.8,3.5,21-8.7,42-26.2,45.5h0ZM1771.5,210.6c-15.8,3.5-31.5-8.8-35-28-3.5-19.3,7-36.8,22.7-40.3,15.8-3.5,31.5,8.8,35,28,3.5,19.2-7,36.8-22.8,40.3Z" class="st0"></path>
  <path d="M1297.1,690.2c12.3-1.8,19.2-15.8,17.5-29.8-3.5-14-14-22.7-26.3-21-12.2,1.8-19.2,15.8-17.5,29.8,3.5,14,14,24.5,26.3,21Z" class="st0"></path>
</svg>