<svg viewBox="0 0 350 165" version="1.1" xmlns="http://www.w3.org/2000/svg" id="Calque_1">
  
  <defs>
    <style>
      .st0 {
        fill: #fff;
      }
    </style>
  </defs>
  <g>
    <polygon points="293 105 271 80.5 270.4 79.8 265.3 79.8 265.3 116.8 271.8 116.8 271.8 91.2 294.9 116.8 299.6 116.8 299.6 79.8 293 79.8 293 105" class="st0"></polygon>
    <polygon points="209.5 79.8 203 79.8 203 116.8 231.8 116.8 231.8 110.6 209.5 110.6 209.5 79.8" class="st0"></polygon>
    <rect height="37" width="6.5" y="79.8" x="242.4" class="st0"></rect>
    <path d="M331.9,95.6v6h10.9v7.3c-3.6,2.6-11.4,2.2-11.4,2.2-7.2,0-13.9-3.1-13.9-12.3s6-13.3,13.9-13.3,9.8,1.5,12.1,2.9l2.7-5.8c-3-1.7-8-3.4-14.8-3.4-12.4,0-20.4,7.2-20.4,19.6s8.7,18.6,20.4,18.6,18-4.9,18-5.2v-16.4h-17.4v-.2Z" class="st0"></path>
    <path d="M30.9,97.3c2.5-1.8,3.3-4.2,3.3-7.2,0-7.5-4-10.3-12.7-10.3H.5v37h23.4c10,0,12.3-5.5,12.3-11.3s-1.6-6.6-5.3-8.2ZM6.9,85.6h14.3c3.9,0,6.5,1.6,6.5,4.6s-.5,5-5,5H6.9s0-9.6,0-9.6ZM23.9,111H6.9v-9.8h16.1c3.5,0,6.5.8,6.5,5s-3.6,4.9-5.6,4.9h0Z" class="st0"></path>
    <path d="M82,90.6c0-8.9-6.9-10.8-13.3-10.8h-20.5v37h6.5v-15.2h9.7l9.5,15.2h7.7l-9.9-15.2c5.6-.4,10.2-3.8,10.2-11h.1ZM54.8,95.6v-9.8h14c2.5,0,6.7.7,6.7,5.3s-3.9,4.5-6.8,4.5h-14,.1Z" class="st0"></path>
    <polygon points="101 101.3 118.9 101.3 118.9 95.3 101 95.3 101 86 125.7 86 125.7 79.8 94.5 79.8 94.5 116.8 125.7 116.8 125.7 110.5 101 110.5 101 101.3" class="st0"></polygon>
    <rect height="37" width="6.5" y="79.8" x="137.7" class="st0"></rect>
    <polygon points="156.3 86 170.1 86 170.1 116.8 176.6 116.8 176.6 86 190.4 86 190.4 79.8 156.3 79.8 156.3 86" class="st0"></polygon>
  </g>
  <path d="M194.9,10.4c-4.2-2-10.2-1-15.7,1h0c.4-7.6-.7-9.7-.7-9.7l-6.2,1.7s.8,4.4.4,11.1h0c-16.2,9.4-27.1,25.1-30.2,35.6-3.3,11.5,5.9,15.4,13.6,9.7,19-14,22.9-45.8,22.9-45.8,5.7-1.8,10.3-.8,13,1.5,6.7,5.8-2,14.7-2,14.7,0,0-2.3-2.6-6.5-3-6.8-.6-10.3,7.6-1.2,8.4,1.5,0,5.5-.4,7-1.2,1.5,2.8,1.1,15.8-7.7,19.6-7.9,3.4-10.8-1.4-10.8-1.4-.2,0-4.2,5.3-4,5.7,0,0,4.2,6.2,13.3,3.6,7.2-2.1,10.7-8.4,12.5-12.9,3.1-7.5.9-14.1-.3-15.9h0c12-8.4,10.2-19.7,2.7-23v.3ZM153.4,57.6c-6.7,1.8-4.9-12.8,3.6-24.5,8.6-11.9,15.4-15.5,15.4-15.5-1.5,17.4-11.8,38.1-18.9,40h-.1ZM180.2,32.6c-1.9-1.2,0-3,1.8-3,2.9,0,5.5,2.5,5.5,2.5,0,0-5,1.9-7.3.5Z" class="st0"></path>
  <g>
    <rect height="27.2" width="5.3" y="135.6" x="128.5" class="st0"></rect>
    <path d="M190,148.6l-.6-.5.6-.5c1.6-1.5,2.1-3.2,2.2-4.3.2-2-.4-3.8-1.6-5.2-1.9-2.1-5.3-3.3-9.8-3.3s-7.9,1.1-9.8,3.3c-1.3,1.4-1.9,3.2-1.6,5.2.1,1.1.6,2.8,2.2,4.3l.6.5-.6.5c-.5.3-.9.7-1.2,1-1.4,1.5-2,3.5-1.8,5.8.3,3.8,3.7,7.8,12.3,7.8h0c8.6,0,12-4,12.3-7.8.2-2.3-.4-4.3-1.8-5.8-.3-.3-.7-.7-1.2-1h-.2ZM187.4,142.8c-.2,1.5-2.3,3-6.7,3s-6.6-1.5-6.7-3c0-.6,0-1.1.4-1.5,1-1.1,3.3-1.7,6.3-1.7s5.3.6,6.3,1.7c.4.4.5.9.4,1.5ZM173.7,152.8c1.1-1.2,3.7-1.9,7-1.9s5.4.1,7,1.9c.5.5.7,1.2.6,2.2-.2,2.6-4.1,3.5-7.6,3.5s-7.4-.9-7.6-3.5c0-.9.1-1.6.6-2.2Z" class="st0"></path>
    <path d="M217,152.5v-17h-12.4l-7.8,17v4.7h15.4v5.5h4.8v-5.5h3.1v-4.8h-3.1ZM202.1,152.5l5.6-12.2h4.6v12.2h-10.2Z" class="st0"></path>
    <path d="M161.5,148.6l-.6-.5.6-.5c1.6-1.5,2.1-3.2,2.2-4.3.2-2-.4-3.8-1.6-5.2-1.9-2.1-5.3-3.3-9.8-3.3s-7.9,1.1-9.8,3.3c-1.3,1.4-1.8,3.2-1.6,5.2.1,1.1.6,2.8,2.2,4.3l.6.5-.6.5c-.5.3-.9.7-1.2,1-1.4,1.5-2,3.5-1.8,5.8.3,3.8,3.7,7.8,12.3,7.8h0c8.6,0,12-4,12.3-7.8.2-2.3-.4-4.3-1.8-5.8-.3-.3-.7-.7-1.2-1h-.2ZM158.9,142.8c-.2,1.5-2.3,3-6.7,3s-6.6-1.5-6.7-3c0-.6,0-1.1.4-1.5,1-1.1,3.3-1.7,6.3-1.7s5.3.6,6.3,1.7c.4.4.5.9.5,1.5h-.1ZM145.1,152.8c1.1-1.2,3.6-1.9,7-1.9s5.4.1,7,1.9c.5.5.7,1.2.6,2.2-.2,2.6-4.1,3.5-7.6,3.5s-7.4-.9-7.6-3.5c0-.9.1-1.6.6-2.2Z" class="st0"></path>
  </g>
</svg>