<svg viewBox="0 0 3500 1200" version="1.1" xmlns="http://www.w3.org/2000/svg" id="Layer_1">
  
  <defs>
    <style>
      .st0 {
        fill: #fff;
      }
    </style>
  </defs>
  <g data-name="Layer_1" id="Layer_11">
    <path d="M3387.2,178.7s-358,496.2-361.2,499.6c2-19.8-1.5-44-21.9-58.4-103.7-73.5-257.7,107.1-293.8,155.3-42.4,48-164.9,142.2-197.9,129.6-33.4-12.7,86.6-167.9,111.6-202.9,54.2-76.1,32.9-88.4-47.2-88.4,12.7-30,14.5-77.3-16.9-77.3-58.1,0-84.8,88-46.3,100.8-37.1,102.5-244.9,291-282,272-18.3-9.3,7.3-56.5,38.1-97.8,66.4-89.1,148.3-197.8,148.3-197.8h-65.8s-39.3,54.8-44.8,62.9c1.8-20-4.6-43.3-23.1-57.7-74-57.3-229.9,42.3-324.8,176.1-22.1,30.1-155.9,119.9-177,107.8-12.7-7.3,3.6-35.7,22.8-63.2,24-34.4,55.5-73,80.3-108.9,21.7-31.5,50-71,50-94.7s-10.9-33.1-43-33.1-138.9,67.2-152.4,79.2c13.6-16.4,182.2-239.1,182.2-239.1h-64.6c-147.9,203.8-332.8,311.9-371.9,328,19.1-24.4,53-89,29.1-132-12.3-22.3-37.1-36.4-67.9-36.4-58,0-143.9,32.4-261.2,171.4-19.3,25.1-142.3,138-170,128.3-15.7-5.4-7.5-26.9,15.2-57.5,27.3-36.9,59.9-76.5,82.7-106.9,48.4-64.3,49.8-95.7,38.9-114.3-7.8-13.5-25.1-20.7-51.6-20.7-49.3,0-125.5,37.9-148.7,58,0,0,28.6-34.4,30-36.3,14.6-8.3,182.3-116,266.6-195.8,109.6-103.7,155.8-219.8,115.1-235.9-68.1-26.9-256.7,175-477.9,463.4-46.3,28.6-93.4,57.7-143.1,82.3,20.6-27.3,80.6-153.7-9.8-194.9-84.7-38.7-259.2,72-327.2,209.5h17.1c68.2-124.5,255.5-232.1,306.7-178.6,33.9,35.4-15.8,153-105.5,231.6-101.8,89.3-220.4,112.6-275.2,87.5-96.1-43.9,1.8-233,96.5-349.7,454-64.3,728.5-362.7,635.2-442.6-57.1-49-429.1,38.8-712.6,425.5-107.1,10.6-287.5-34.4-279.1-194.4C100.8,115.9,484.8,57.4,682.2,80.4l11-13C400,30.9,50,136.3,50,352.9s133.8,197.7,302.2,197.7c-120.9,184.5-105.1,321.5-21.8,367.5,99.2,54.7,264-.2,388.2-146.9,40.8-16.8,81.7-41.7,130.8-69.8-97.1,117.7-183.4,222.9-183.4,222.9h88.7s84.5-130.6,183.5-220.8c47.7-43.5,99.4-71.6,140.3-76,24.4-2.6,23.9,22.7.4,53.6-38.5,50.9-77.7,102.3-106.9,141.9-35.4,48-39.2,91.8-6.7,106.9,48.1,22.4,132.3-40.1,198-97.9-5.2,30.5,3.9,84.9,59,98.2,66.2,16,148.4-26.9,235.6-123.1,68.7-15.7,194.9-111.7,198.9-115.4-1.1,2.7-107.2,138.1-342,447.8,0,0,66.8,0,66.8,0,0,0,235.6-302.4,235.7-302.2,87.1-112.4,218.5-198.6,241.5-199.1,17.6-.5-3.4,34.2-32.9,73.8-32.7,43.9-66.3,88.1-85.9,116.9-27.8,40.9-42.5,87.3,1.1,103.2,54.7,20,192-83,205.1-93.8-.9,8-11.6,71.3,44,91.1,76.2,27,175.8-60.7,175.8-60.7,0,0-6.9,51.1,34.4,62.9,86.2,24.6,256.2-134.6,364.2-294.9,36.8.2,22.5,19.9,15.8,31.8-6.7,11.9-48.6,66.7-93.4,128.6-44.8,61.8-64.7,118.5-8.7,135.1,65.4,19.3,206.2-92.6,206.2-92.6-8.5,48,9.6,75.2,39,88.7,60.6,27.7,157.7-43.3,171.2-54.3-3.1,10.3-5.5,50.6,23.9,58.4,104.9,27.7,290.2-207.4,290.2-207.4l-20.7-1.7s-28.6,36.7-76.7,83.2c-56,54.2-127.7,110-149.5,97.6-17-9.7,31.1-85.6,59-124.7,23.3-32.8,428.8-600.6,428.8-600.6h-62.8.3ZM463.7,514.5C724.2,212,1023.2,99.6,1057.5,122.2c65.9,43.3-288.5,341.1-593.8,392.4M1030,561.9c59.3-79.4,280.4-368.3,323.6-350.5,16.4,6.7-64.7,175.1-323.6,350.5M1478.1,721.3c-50.5-26.6-113.3,47.1-63.3,79.1-59.9,70-156.7,124.3-184.8,108.1-82.1-47.3,143.9-278.8,231.2-276.6,55.5,1.4,31.3,64.9,16.8,89.4M2217.2,789.8c-52.5,59.2-169.3,144.7-204.6,120.2-73-50.8,183.5-316.9,255-272.5,37.8,23.4,7.7,86.9-50.4,152.4M2925.1,805.4c-62.7,72.8-141.5,122.2-174.8,99.7-74.2-50.2,175.6-325.4,240.4-265.9,34.9,32.2-10.4,102.1-65.7,166.2" class="st0"></path>
  </g>
</svg>