<svg viewBox="0 0 550 250" xmlns:xlink="http://www.w3.org/1999/xlink" version="1.1" xmlns="http://www.w3.org/2000/svg" id="Calque_1">
  
  <defs>
    <style>
      .st0 {
        fill: #fff;
      }
    </style>
  </defs>
  <g>
    <g>
      <path d="M358,138.1s-27.1-30.8-27.2-30.8c0-.1-27.2,30.8-27.2,30.8h-21.2l37.9-43-36.9-42.1h22.8l25.5,29,25.5-29h21.2l-36.1,41,38.9,44h-23.3Z" class="st0"></path>
      <path d="M215,51.6c-33.8,0-51.1,16-51.1,38.2v11.3c.3,24.2,17.9,38.3,51.1,38.3s50.8-14.1,51.1-38.3v-11.3c0-22.2-17.3-38.2-51.1-38.2ZM248.3,102.5c-.9,13.4-11.6,21-33.3,21s-32.5-7.6-33.3-21c-.1-1.4-.1-12.6,0-13.9.6-13.6,13.1-21.1,33.3-21.1s32.7,7.5,33.3,21.1c.1,1.3.1,12.4,0,13.9Z" class="st0"></path>
      <path d="M480.5,138.1h19.5l-43.9-85.1h-16.8l-43.8,85.1h18.4l8.1-15.9h50.4l8.2,15.9ZM429.3,107.7l17.6-34.7,17.9,34.7h-35.5Z" class="st0"></path>
    </g>
    <path d="M100.6,138.1h-50.6V53.1h48.7c26.8,0,42.8,12.9,43.5,35,.3,7.9.1,14.9.1,14.9,0,23.3-17,35.2-41.7,35.2ZM124.6,88.9c-.5-11.6-8.9-20.2-28.6-20.2h-29v54h29.3c20,0,28-7.7,28.4-20.8.2-5.9,0-8.8-.1-13Z" class="st0"></path>
  </g>
  <g>
    <g>
      <path d="M311.3,174.5c0,3.3-1.6,6-4.7,6.9h0c3,.7,5.6,3.8,5.6,7.6,0,6.1-4.7,9.3-10.4,9.3s-10.4-3.2-10.4-9.3,2.7-6.9,5.6-7.5h0c-3.1-1-4.7-3.8-4.7-7,0-5.2,4.2-8.1,9.5-8.1,5.2,0,9.4,2.9,9.4,8.1ZM296.6,188.4c0,2.9,2.2,5,5.2,5s5.2-2,5.2-5-2.4-4.8-5.2-4.8-5.2,2-5.2,4.8ZM297.6,175.1c0,2.4,1.7,4.3,4.2,4.3s4.2-1.9,4.2-4.3-1.8-4.2-4.2-4.2c-2.7,0-4.2,1.9-4.2,4.2Z" class="st0"></path>
      <path d="M355.5,197.8l7.4-11.4h0c-.6.3-1.8.4-2.9.4-5.4,0-9.3-4.5-9.3-9.9s4.7-10.5,11-10.5,11,4,11,10.5-1.2,5.7-2.9,8.5l-7.9,12.4h-6.3ZM361.5,171.4c-3.1,0-5.6,2.5-5.6,5.6s2.5,5.6,5.6,5.6,5.6-2.5,5.6-5.6-2.5-5.6-5.6-5.6Z" class="st0"></path>
    </g>
    <g>
      <path d="M184.1,173l-5.8,5.4-3.1-3.6,9.3-7.8h4.8v30.9h-5.2v-24.8Z" class="st0"></path>
      <path d="M251.9,174.5c0,3.3-1.6,6-4.7,6.9h0c3,.7,5.6,3.8,5.6,7.6,0,6.1-4.7,9.3-10.4,9.3s-10.4-3.2-10.4-9.3,2.7-6.9,5.6-7.5h0c-3.1-1-4.7-3.8-4.7-7,0-5.2,4.2-8.1,9.5-8.1,5.2,0,9.4,2.9,9.4,8.1ZM237.2,188.4c0,2.9,2.2,5,5.2,5s5.2-2,5.2-5-2.4-4.8-5.2-4.8-5.2,2-5.2,4.8ZM238.2,175.1c0,2.4,1.7,4.3,4.2,4.3s4.2-1.9,4.2-4.3-1.8-4.2-4.2-4.2c-2.7,0-4.2,1.9-4.2,4.2Z" class="st0"></path>
    </g>
  </g>
</svg>