<svg viewBox="0 0 3425 600" version="1.1" xmlns="http://www.w3.org/2000/svg" id="Layer_1">
  
  <defs>
    <style>
      .st0 {
        fill: #fff;
      }
    </style>
  </defs>
  <g data-name="Layer_1" id="Layer_11">
    <g>
      <path d="M1474.8,168.8l-31,8.4V49.5h20.7c25.4,0,85.6.3,85.6,54.3s-16,47.3-75.3,65M1483.9,21.5h-99.8v8.8c5.4.9,13.1,3,17.6,5.3v224.3c-4.5,2.3-12.1,4.3-17.6,5.3v8.8h77.2v-8.8c-5.4-.9-13.1-3-17.6-5.3v-51.4s36.4-9.7,72.9-21.2c38.9-12.2,77.8-34,77.4-85.9-.4-55.6-39-79.8-110.2-79.8" class="st0"></path>
      <path d="M1797.3,225.6h-8.8c-.9,6-3.6,13.7-7.5,20h-117.4v-98h86.3c2.6,4.4,4.6,9,6.1,14.1h5.3v-56.5h-5.3c-1.6,6-3.3,9.4-6.1,14.1h-86.3V49.8h109.5c2.8,5.4,5,11.2,6.1,17.5h8.8V21.5h-184v8.8c5.4.9,13.1,3,17.6,5.3v224.3c-4.5,2.2-12.1,4.3-17.6,5.3v8.8h193.2v-48.3h.1Z" class="st0"></path>
      <path d="M248.8,30.2c5.4.9,13.1,3,17.6,5.3v224.3c-4.5,2.2-12.1,4.3-17.6,5.3v8.8h77.2v-8.8c-5.4-.9-13.1-3-17.6-5.3V35.5c4.5-2.2,12.1-4.3,17.6-5.3v-8.8h-77.2v8.8Z" class="st0"></path>
      <path d="M157.4,143.5c5.4.9,13.1,3,17.6,5.3v95c-63.3,0-115.4-45.3-115.4-107.5s28.3-90.4,75.2-91.2c27,.2,38.7,13.1,45.1,26.2,7.1-2.4,41.4-12.2,41.4-12.2-14.6-27-42.9-42.5-87.9-42.1-43.7.4-122.2,27-120.9,119.3,1.2,87.5,68.8,137,166.7,137h37.4l.3-124.7c4.5-2.2,12.1-4.3,17.6-5.3v-8.8h-77.2v9Z" class="st0"></path>
      <path d="M640.9,147.6l28.8-88.5,31.2,88.5h-60.1,0ZM426.9,152.9l-27.4,7.8V49.7h17.1c20.9,0,70.5.2,70.5,46.5s-11.3,41.6-60.1,56.7M863.7,49.6h17.1c20.9,0,70.5.2,70.5,46.5s-11.3,41.6-60.1,56.7l-27.4,7.8V49.6h0ZM863.7,190.2s16.7-4.7,42-12.2l53.1,95.8h58.2v-8.8c-5.4-.9-13.1-3-17.6-5.3l-53.2-95.6c26.9-12.2,49.1-32.6,48.8-70.1-.4-50.6-35.4-72.5-100.1-72.5h-90.7v8.8c5.4.9,13.1,3,17.6,5.3v224.2c-4.4,2.2-11.7,4.2-17.1,5.2-5.4-1-12.8-3-17.2-5.2l-86.6-238.4h-47.7l-84.5,238.3c-4.3,2.1-11.3,4.1-16.7,5.1-5.4-1-12.4-3-16.7-5.1l-53.2-95.6c26.9-12.2,49.1-32.6,48.8-70.1-.4-50.6-35.4-72.5-100.1-72.5h-90.7v8.8c5.4.9,13.1,3,17.6,5.3v224.2c-4.5,2.3-12.1,4.4-17.6,5.3v8.8h77.2v-8.8c-5.4-.9-13.1-3-17.6-5.3v-69.6s16.7-4.7,41.9-12.2l52.2,95.8h128.3v-8.8c-5.4-.9-13.1-3-17.6-5.3l27.3-83.8h79.3l29.6,83.9c-4.5,2.2-12.2,4.3-17.6,5.3v8.8h158.3v-8.8c-5.4-.9-13.1-3-17.6-5.3v-69.6h0Z" class="st0"></path>
      <path d="M1091.1,243.4V49.6l20.3.2c55.3,0,93.6,35.3,93.6,88.1,0,83.8-55.2,102.8-113.9,105.5M1251.3,139.5c0-97.7-82.8-118-141.1-118h-80.8v8.8c5.4.9,13.1,3,17.6,5.3v224.3c-4.5,2.3-12.1,4.4-17.6,5.3v8.8l55.3-.5c97.9,0,166.7-46.5,166.7-134" class="st0"></path>
      <polygon points="1361.1 147.6 1291 147.6 1284.3 175.9 1354.4 175.9 1361.1 147.6" class="st0"></polygon>
      <path d="M3085.5,30.2c5.4.9,13.1,3,17.6,5.3v208.3c-77.9-.4-101.8-33.1-101.8-107.5V35.5c4.5-2.3,12.1-4.4,17.6-5.3v-8.8h-77.2v8.8c5.4.9,13.1,3,17.6,5.3l-.2,100.9c0,95.2,25.4,137.9,148.4,137.5h37.4l.3-238.4c4.5-2.2,12.1-4.3,17.6-5.3v-8.8h-77.2v8.8h-.1Z" class="st0"></path>
      <path d="M2131,152.9l-27.4,7.8V49.7h17c20.9,0,70.5.2,70.5,46.5s-11.3,41.6-60.1,56.7M2186,164.2c26.9-12.2,49.1-32.6,48.8-70.1-.4-50.6-35.4-72.5-100.1-72.5h-90.7v8.8c5.4.9,13.1,3,17.6,5.3v224.2c-4.5,2.2-12.1,4.3-17.6,5.3v8.8h77.2v-8.8c-5.4-.9-13.1-3-17.6-5.3v-69.6s16.7-4.7,41.9-12.2l52.2,95.8h59.2v-8.8c-5.4-.9-13.1-3-17.6-5.3l-53.2-95.6h0Z" class="st0"></path>
      <path d="M1900.9,152.9l-27.4,7.8V49.7h17.1c20.9,0,70.5.2,70.5,46.5s-11.3,41.6-60.1,56.7M2026.7,265c-5.4-.9-13.1-3-17.6-5.3l-53.2-95.6c26.9-12.2,49.1-32.5,48.8-70.1-.4-50.6-35.4-72.5-100.1-72.5h-90.7v8.8c5.4.9,13.1,3,17.6,5.3v224.2c-4.5,2.3-12.1,4.4-17.6,5.3v8.8h77.2v-8.8c-5.4-.9-13.1-3-17.6-5.3v-69.6s16.7-4.7,41.9-12.2l52.2,95.8h59.2v-8.8h-.1Z" class="st0"></path>
      <path d="M2468.4,225.6h-8.8c-.9,6-3.6,13.7-7.5,20h-117.4v-98h86.3c2.6,4.4,4.6,9,6.1,14.1h5.3v-56.5h-5.3c-1.6,6-3.3,9.4-6.1,14.1h-86.3V49.8h109.5c2.8,5.4,5,11.2,6.1,17.5h8.8V21.5h-184v8.8c5.4.9,13.1,3,17.6,5.3v224.3c-4.5,2.2-12.1,4.3-17.6,5.3v8.8h193.2v-48.3h0Z" class="st0"></path>
      <path d="M2796.6,147.6l28.8-88.5,31.3,88.5h-60.1ZM2856.5,21.4h-47.7l-84.5,238.3c-4.5,2.2-12.1,4.4-17.6,5.3v8.8h71v-8.8c-5.4-.9-13.1-3-17.6-5.3l27.3-83.8h79.3l29.6,83.9c-4.5,2.3-12.1,4.4-17.6,5.3v8.8h82v-8.8c-5.4-.9-13.1-3-17.6-5.3l-86.6-238.4h0Z" class="st0"></path>
      <path d="M3395,259.7l-79.4-122.4,66.2-101.9c4.5-2.3,12.1-4.4,17.6-5.3v-8.8h-74.2v8.8c5.4.9,13.1,3,17.6,5.3l-46.6,71.8-46.6-71.8c4.5-2.3,12.1-4.4,17.6-5.3v-8.8h-85.2v8.8c5.4.9,13.1,3,17.6,5.3l65.4,100.7-80.1,123.5c-4.5,2.3-12.1,4.4-17.6,5.3v8.8h74.7v-8.8c-5.4-.9-13.1-3-17.6-5.3l60.4-93,60.4,93c-4.5,2.3-12.1,4.4-17.6,5.3v8.8h85v-8.8c-5.4-.9-13.1-3-17.6-5.3" class="st0"></path>
      <path d="M2704.1,134.7h-77.2v8.8c5.4.9,13.1,3,17.6,5.3v95c-63.3,0-115.4-45.3-115.4-107.5s28.3-90.4,75.2-91.2c27,.2,38.7,13.1,45.1,26.2,7.1-2.4,41.4-12.2,41.4-12.2-14.6-27-42.9-42.5-87.9-42.1-43.7.4-122.2,27.1-120.9,119.3,1.2,87.5,68.8,137,166.7,137h37.4l.3-124.6c4.5-2.3,12.1-4.3,17.6-5.3v-8.8h0Z" class="st0"></path>
      <path d="M2157,421.5h-177.4l6.7,14.2c3.6,7.7,12.1,32,4.9,43.4-2.9,4.7-9.3,7.2-18.9,7.2-53.1,0-170.9.7-171.3.7-7.3,0-23.6-2.5-27.1-10.4-2-5.7-16.2-39-61-39.6h-.3c-44.8.6-58.9,33.9-61,39.6-3.5,8-19.8,10.5-27.2,10.4-.3,0-118.1-.7-171.2-.7s-16-2.4-18.9-7.2c-7.2-11.4,1.4-35.8,4.9-43.4l6.7-14.2h-177.4l-64.7,80.8,64.7,80.8h177.4l-6.7-14.3c-3.5-7.7-12.1-32-4.9-43.5,3-4.7,9.4-7.1,18.9-7.1,53.1,0,170.9-.8,171.4-.8,7.3,0,23.6,2.5,27.1,10.5,2.1,5.6,16.2,38.9,61,39.4h.3c44.8-.5,59-33.8,61-39.4,3.5-8,19.8-10.5,27.2-10.5s118.1.8,171.2.8,16,2.4,18.9,7.1c7.3,11.4-1.3,35.8-4.9,43.5l-6.7,14.2h177.4l64.6-80.8-64.6-80.8h0Z" class="st0"></path>
    </g>
  </g>
</svg>