<svg viewBox="0 0 370 75" xmlns:xlink="http://www.w3.org/1999/xlink" version="1.1" xmlns="http://www.w3.org/2000/svg" id="Calque_1">
  
  <defs>
    <style>
      .st0 {
        fill: #fff;
      }
    </style>
  </defs>
  <path d="M178.2,50h-1c-.1,0-.2,0-.2.2v6.8l-4.6-6.8c-.1,0-.2-.2-.3-.2h-1c-.1,0-.2,0-.2.2v9s.1.2.2.2h1c.1,0,.2,0,.2-.2v-6.7l4.6,6.8c.1.2.3.2.3.2h1c.1,0,.2,0,.2-.2v-9c.1-.2,0-.3-.2-.3" class="st0"></path>
  <path d="M278.1,49.9c-1.8,0-3.1.8-3.6,2.2-.2.6-.3,1.2-.3,2.6s.1,2.1.3,2.6c.5,1.4,1.8,2.2,3.6,2.2s3.1-.8,3.6-2.2c.2-.6.3-1.2.3-2.6s-.1-2.1-.3-2.6c-.5-1.5-1.8-2.2-3.6-2.2M280.1,56.9c-.3.9-1,1.3-2.1,1.3s-1.8-.4-2.1-1.3c-.2-.4-.2-1.1-.2-2.2s.1-1.8.2-2.2c.3-.9,1-1.3,2.1-1.3s1.8.4,2.1,1.3c.2.4.2,1.1.2,2.2s-.1,1.8-.2,2.2" class="st0"></path>
  <path d="M159.2,50h-1c-.2,0-.3,0-.3.2v8.9s.1.2.3.2h1c.2,0,.3,0,.3-.2v-8.9s-.1-.2-.3-.2" class="st0"></path>
  <path d="M251.1,50h-7.2c-.2,0-.3,0-.3.2v.8s.1.2.3.2h2.8v7.8s.1.2.3.2h1c.2,0,.3,0,.3-.2v-7.8h2.8c.2,0,.3,0,.3-.2v-.8s-.2-.2-.3-.2" class="st0"></path>
  <path d="M299.1,50h-1c-.1,0-.2,0-.2.2v6.8l-4.6-6.8c-.1,0-.2-.2-.3-.2h-1c-.1,0-.2,0-.2.2v9s.1.2.2.2h1c.1,0,.2,0,.2-.2v-6.7l4.6,6.8c.1.2.3.2.3.2h1c.1,0,.2,0,.2-.2v-9c.1-.2,0-.3-.2-.3" class="st0"></path>
  <path d="M214.2,50h-6.2c-.2,0-.3,0-.3.2v8.9s.1.2.3.2h6.2c.2,0,.3,0,.3-.2v-.9s-.1-.2-.3-.2h-4.8v-2.8h4.1c.2,0,.3,0,.3-.2v-.9s-.1-.2-.3-.2h-4.1v-2.7h4.9c.2,0,.3,0,.3-.2v-.8s-.2-.2-.4-.2" class="st0"></path>
  <path d="M197,50h-1c-.1,0-.3,0-.3.2l-2.4,6.8-2.5-6.8s-.2-.2-.3-.2h-1.2s-.1,0,0,.2l3.3,8.9s.2.2.3.2h.9c.1,0,.2,0,.3-.2l3.3-8.9v-.2h-.4" class="st0"></path>
  <path d="M232.7,50h-1c-.1,0-.2,0-.2.2v6.8l-4.6-6.8c-.1,0-.2-.2-.3-.2h-1c-.1,0-.2,0-.2.2v9s.1.2.2.2h1c.1,0,.2,0,.2-.2v-6.7l4.6,6.8c.1.2.3.2.3.2h1c.1,0,.2,0,.2-.2v-9c0-.2,0-.3-.2-.3" class="st0"></path>
  <g>
    <path d="M263.1,50h-1c-.2,0-.3,0-.3.2v8.9s.1.2.3.2h1c.2,0,.3,0,.3-.2v-8.9s0-.2-.3-.2" class="st0"></path>
    <path d="M134.2,51.7c-.1-.2-.4-.3-.5-.3h-.2c-2,.4-7.3,9.7-7.3,9.7h-2.5c0-.5-.2-1-.6-1.3-.9-.9-2.7-.5-3.9.8s-1.4,3.1-.5,4,2.7.5,3.9-.8c.6-.6.9-1.3,1-2h2.2c-6.3,10.8-9.3,11.1-9.3,11.1,0,0-.6.3-1.1-.4-.5-.7-.3-1.6-.3-1.6l-.5.3s-.8,1.8,0,2.8c0,0,.4.6,1.2.5,0,0,3.8,0,11.1-12.7h2.4l.4-.7h-2.5c4-7.2,5.5-7.8,5.9-7.8h.2c.2.3-.2,1.4-.3,1.7l.6-.3c.9-1.7,1.1-2.6.7-3.1M122.2,63.5c-.9,1-2.2,1.4-2.8.8s-.4-1.9.5-2.9,2.2-1.4,2.8-.8.4,1.9-.5,2.9" class="st0"></path>
  </g>
  <path d="M114,50h-7.2c-.2,0-.3,0-.3.2v.9s0,.2.3.2h2.8v7.8s0,.2.3.2h1c.2,0,.3,0,.3-.2v-7.8h2.8c.2,0,.3,0,.3-.2v-.9c0,0,0-.2-.3-.2" class="st0"></path>
  <path d="M95.3,55.3c1.2-.4,2-1.3,2-2.6s-1.3-2.7-3.3-2.7h-3.7c-.2,0-.3,0-.3.2v8.9s0,.2.3.2h1c.2,0,.3,0,.3-.2v-3.7h2.2l2,3.7s0,.2.3.2h1.4v-.2l-2.2-3.7h0ZM93.8,54.2h-2.4v-2.9h2.4c1.1,0,1.8.5,1.8,1.4s-.6,1.5-1.8,1.5" class="st0"></path>
  <path d="M76.7,50.2c0-.2-.2-.2-.3-.2h-1c-.2,0-.3.2-.3.2l-3.6,8.9v.2h1.3s.2,0,.3-.2l.8-1.9h4l.8,1.9c0,.2.2.2.3.2h1.3v-.2s-3.6-8.9-3.6-8.9ZM74.3,56l1.5-3.8,1.5,3.8h-3Z" class="st0"></path>
  <path d="M363.6,4.1c0-.7-.4-1.4-1-1.6-.4-.1-1-.2-1.8-.2V.9h8.4v1.4c-1,0-1.9.6-2.4,1.3l-2.9,4.4-6.4,9.4v8.3c0,1.8.2,2.9.7,3.3,0,0,.8.8,2.6.8v1.4h-10.8v-1.4c1.7,0,2.8-.4,3.3-.9.4-.5.6-1.7.6-3.7v-7.3l-4.3-8.1c-1.7-3-3-5.1-3.7-6s-1.6-1.3-2.6-1.4V.9h9.7v1.4c-.7,0-.9.1-1.4.2-.5.2-.7.8-.7,1.6s0,.4.1.7.2.7.5,1.1l5,8.9,6.2-9.1c.9-.9.9-1.6.9-1.6" class="st0"></path>
  <path d="M327.1,14.6h2c2.2,0,4.9-.1,5.7-.2.9-.1,1.2-.8,1.2-.8.3-.8.3-1.1.5-1.9h1.3v8.9h-1.4v-.4c0-1.3-.2-2.2-.4-2.7-.2-.4-.6-.7-1.3-.8-.7-.1-3.1-.2-5-.2s-1.9.1-2.6.2c0,0-.1,6.4.2,11.6.1,0,.3,0,.5.2.2,0,.5,0,.8.2h1c5.5.3,7.7-.4,7.7-.4.9-.3,1.6-.8,2.1-1.5s.9-1.8,1.3-3.2v-.3h1.4v.4c-.3,1.6-.5,2.9-.7,3.9s-.5,2-.8,3v.4h-19.6v-1.5h.4c.3,0,.7-.2,1-.3.4,0,.5-.3.6-.3s.2-.2.2-.4.1-.6.2-1.1c.5-12.9.1-23.2.1-23.2-.1-.9-.3-1.2-.4-1.3s-.5-.4-1.3-.6h-.3v-1.3h13.1c1.2,0,3-.1,5.4-.2h.4v.4c-.1,1.3-.2,2.6-.3,3.9h-1.3c0-1-.7-1.6-1.5-1.8-.9-.3-2.1-.4-3.4-.4s-4.6.1-6.3.4c-.3,0-.5,4.1-.5,11.3" class="st0"></path>
  <path d="M311.2,16c-1.1-.6-2.5-1.3-4.3-2-1.5-.6-2.8-1.2-3.6-1.6-.8-.4-1.5-1-2-1.8-.5-.7-.8-1.7-.8-2.9s.3-2.3,1.1-3.5c.7-1.1,2.2-1.8,4.4-1.8s1.9.2,3,.5c0,0,4.1,1.5,4.1,5.5h1.5c-.4-3.6.2-7.3.2-7.3l-1.2-.4s-.4.9-1.2.7c0,0-.2,0-1-.2-1.5-.3-3.1-.5-4.6-.5-3.1,0-5.5.8-7.2,2.4s-2.5,3.6-2.5,6,.4,2.8,1,3.9c.7,1.1,1.6,1.9,2.8,2.7,1.1.7,2.5,1.5,4.3,2,0,0,4.2,1.3,5.9,2.5,1.7,1.3,1.7,3.9,1.7,3.9.1,5.6-5.1,5.3-5.1,5.3-1.4,0-2.7-.2-3.8-.6-1.2-.4-2.3-.9-3.2-1.4-.5-.3-.9-.6-1.2-.9-.3-.4-.5-.8-.7-1.2-.2-.5-.5-1.3-.8-2.5l-1.5.4c.8,2.9,1.2,5.9,1.2,7.9h1.9v-.7c4.1,1.1,7,1,7,1,2.2,0,4-.4,5.5-1.1,1.5-.7,2.7-1.7,3.4-2.9.8-1.2,1.1-2.6,1.1-4.2,0,.2.2-4.4-5.4-7.2" class="st0"></path>
  <path d="M53.3,8.1c0,6.5-6.5,8.4-6.5,8.4,0,0,2.8,6.4,5.1,9.9,0,0,1.6,2.7,4.2,3.2v1.5c-2,.2-3.4,0-3.4,0-2-.2-3.9-3.4-3.9-3.4-1.9-2.9-5.5-11.1-5.5-11.1h-4.7v10.3c0,.5,0,.9.2,1.3,0,.4.4.7.9.9.2,0,.6.2,1.2.3v1.7h-8.5v-1.7c.6,0,1-.2,1.2-.3.4-.2.7-.5.8-.8.2-.4.3-.8.3-1.4V5.2c0-.5,0-.9-.2-1.3,0-.4-.4-.7-.9-.9-.3-.1-.7-.2-1.2-.4-.5-.1-.9-.2-1.3-.2V.9h13.7s8.5-.2,8.5,7.2M49.8,8.6c0-2.3-.8-3.5-1.7-4.5-1.2-1.2-3.2-1.4-5-1.4h-4.7v11.9h4c1.8,0,3.4,0,4.6-.8,1.2-.9,2.8-2.7,2.8-5.2" class="st0"></path>
  <path d="M251.1.6c-9.2.1-12.7,8.8-12.7,15.5s3.5,15.4,12.7,15.5c9.2,0,12.7-8.8,12.7-15.5s-3.5-15.5-12.7-15.5M251.1,29.3c-6.3,0-8.6-7.5-8.6-13.3s2.4-13.2,8.6-13.3c6.3.1,8.6,7.5,8.6,13.3s-2.4,13.3-8.6,13.3" class="st0"></path>
  <path d="M215.5,27.9s-.2,1.6-2.3,1.7v1.5c-.1,0,10.5,0,10.5,0v-1.7h-.4c-1.1-.3-2-.5-2.4-.6-1.1-.3-1.3-2-1.3-2,0,0-.1-4.6,0-10.4h6.6s2.2,0,2.4.8c0,0,.2.9.2,2.6h1.6v-7.8h-1.6c0,.8,0,1.3-.1,1.6-.2.4-1.7.5-2.3.5,0,0-3.8.1-6.8.1V3.2c9.1-.4,12.1.2,12.1.2,2.3.9,1.7,3.9,1.7,3.9h1.6c.3-2.5.3-6.9.3-6.9-3.7.7-12.7.5-12.7.5h-9.9v1.4c1.8,0,2.1.4,2.1.4,0,0,1.2.3,1.1,10.4,0,.2-.1,10.5-.4,14.8" class="st0"></path>
  <path d="M189.7,23.7h-1.3c-.4,1.4-.8,2.5-1.3,3.2s-1.2,1.2-2.1,1.5c-.9.3-1.7.5-3.4.5-2.8,0-6.2-.6-6.2-.6-.3-14.2,0-24.5,0-24.6,0-.6.6-.9.6-.9.4-.1,1-.3,1.8-.4h.4V.9h-9.1v1.4h.4s1.9-.1,2,1.4c0,.5.2,2.5.2,4.8v7.2c.1.5.1,1.6.1,3.5s-.1,3.5-.1,5c-.1,1.5-.1,2.5-.2,3.1-.1.6-.1.9-.2,1.1,0,.2-.1.3-.2.4,0,0-.2.2-.6.3-.4,0-.7.2-1,.3h-.3v1.6c-.1,0,18.9,0,18.9,0,.1,0,1.6-4,1.6-7.3" class="st0"></path>
  <g>
    <path d="M149,14.6h2c2.2,0,4.9-.1,5.7-.2.9-.1,1.2-.8,1.2-.8.3-.8.3-1.1.5-1.9h1.3v8.9h-1.4v-.4c0-1.3-.2-2.2-.4-2.7-.2-.4-.6-.7-1.3-.8-.7-.1-3.1-.2-5-.2s-1.9.1-2.6.2c0,0-.1,6.4.2,11.6.1,0,.3,0,.5.2.2,0,.5,0,.8.2h1c5.6.3,7.7-.4,7.7-.4.9-.3,1.6-.8,2.1-1.5s.9-1.8,1.3-3.2v-.3h1.4v.4c-.3,1.6-.5,2.9-.7,3.9s-.5,2-.8,3v.4h-19.6v-1.5h.4c.3,0,.7-.2,1-.3.4,0,.5-.3.6-.3s.2-.2.2-.4.1-.6.2-1.1c.5-12.9.1-23.2.1-23.2-.1-.9-.3-1.2-.4-1.3-.1-.1-.5-.4-1.3-.6h-.3v-1.3h13.1c1.2,0,3-.1,5.4-.2h.4v.4c-.1,1.3-.2,2.6-.3,3.9h-1.3c0-1-.7-1.6-1.5-1.8-.9-.3-2.1-.4-3.4-.4s-4.6.1-6.3.4c-.3,0-.5,4.1-.5,11.3" class="st0"></path>
    <path d="M117.7,27.9c-.1.4-.2.6-.4.8-.2.2-.5.4-.7.4-.3,0-.8.2-1.3.2h-.4v1.6h10.3c2.7,0,7,.3,9.1-1.2,2.2-1.6,3.8-3.7,3.8-7.1s-.3-2.5-.8-3.6c-.5-1.2-1.5-2.2-2.8-3.1-1-.7-1.6-1.3-3.1-1.7,1.3-.6,2.4-1.3,3.1-2.2,1-1.3,1.4-2.4,1.4-3.9,0-4.8-4.1-6.6-4.1-6.6-3.1-1.5-9.1-.8-9.1-.8-2.1.2-3.6.2-4,.2h-3.8v1.6h.3c.6.2,1.2.3,1.5.5s.6.4.7.7c.1.2.3.8.4,2.1.2,0,.6,7.4,0,22.1M121.8,3.1c.6-.2,2.6-.4,4.2-.4,3.4,0,6.5,1.6,6.5,5.3s-2.9,5-6.3,5h-4.3V3.1h0ZM132.8,26.7c-.7.9-1.6,1.6-2.6,1.9-1,.4-3.9.6-5,.6h-2.3c-.3,0-.6-.2-.7-.4-.2-.3-.3-.7-.3-1.2-.1-.6-.1-1.7-.1-3.3v-8.7h2.2s3.3-.1,5.4.7c1.1.4,1.9,1,2.5,1.7s1.1,1.5,1.4,2.4c.3.9.5,1.8.5,2.7.1,1.6-.3,2.8-1,3.7" class="st0"></path>
  </g>
  <path d="M108.2,22.7V3.5s0-1.2,3.1-1.2V.9h-9v1.4c3.1,0,3.1,1.2,3.1,1.2v16.5c0,3.9-.3,4.7-.3,4.7-.6,1.6-1.3,2.3-2.6,3.1-1.2.8-2.7,1.2-4.3,1.2s-2.3-.3-3.1-.8c-.8-.5-1.5-1.1-1.9-1.9-.5-.8-.8-1.9-.9-3.3V5s0-2.2,1.9-2.4l2.4-.3V.9h-11.6v1.4h0c1.4.2,1.9.3,2.1.3.9.2.9,2.2.9,2.2v12.9h0c0,3.6.2,6,.6,7.3.6,1.9,1.7,3.5,3.1,4.7,1.5,1.2,3.7,1.7,6.5,1.7s4.9-.6,6.5-1.8c1.5-1.2,2.6-2.7,3.1-4.3,0,0,.4-1.2.4-2.6" class="st0"></path>
  <path d="M66.4,14.6h2c2.1,0,4.9-.1,5.7-.2.9-.1,1.2-.8,1.2-.8.3-.8.3-1.1.5-1.9h1.3v8.9h-1.4v-.4c0-1.3-.2-2.2-.4-2.7-.2-.4-.6-.7-1.3-.8-.7-.1-3.1-.2-5-.2s-1.9.1-2.6.2c0,0,0,6.4.2,11.6,0,0,.3,0,.5.2.2,0,.5,0,.8.2h1c5.6.3,7.7-.4,7.7-.4.9-.3,1.6-.8,2.1-1.5s.9-1.8,1.3-3.2v-.3h1.3v.4c-.2,1.6-.4,2.9-.6,3.9s-.5,2-.8,3v.4h-19.7v-1.5h.4c.3,0,.7-.2,1-.3.4,0,.5-.3.6-.3,0,0,.2-.2.2-.4s0-.6.2-1.1c.5-12.9,0-23.2,0-23.2,0-.9-.3-1.2-.4-1.3s-.5-.4-1.3-.6h-.3V.9h12.9c1.2,0,3-.1,5.4-.2h.4v.4c0,1.3-.2,2.6-.3,3.9h-1.3c0-1-.7-1.6-1.5-1.8-.9-.3-2.1-.4-3.4-.4s-4.6.1-6.3.4c0,0-.2,4.2-.2,11.4" class="st0"></path>
  <g>
    <path d="M289.6,8.1c0,6.5-6.5,8.4-6.5,8.4,0,0,2.8,6.4,5.1,9.9,0,0,1.6,2.7,4.2,3.2v1.5c-2,.2-3.4,0-3.4,0-2-.2-3.9-3.4-3.9-3.4-1.9-2.9-5.5-11.1-5.5-11.1h-4.7v10.3c0,.5.1.9.2,1.3.1.4.4.7.9.9.2,0,.6.2,1.2.3v1.7h-8.4v-1.7c.6,0,1-.2,1.2-.3.4-.2.7-.5.8-.8s.3-.8.3-1.4V5.2c0-.5-.1-.9-.2-1.3-.1-.4-.4-.7-.9-.9-.3-.1-.7-.2-1.2-.4-.5-.1-.9-.2-1.3-.2V.9h13.7c-.2,0,8.4-.2,8.4,7.2M286.1,8.6c0-2.3-.8-3.5-1.7-4.5-1.2-1.2-3.2-1.4-5-1.4h-4.7v11.9h4c1.8,0,3.4,0,4.6-.8,1.1-.9,2.8-2.7,2.8-5.2" class="st0"></path>
    <path d="M25.8,30l.4-1-.2-.2c-.2-.2-.4-.4-.5-.6,0,0,0-.4-.2-1v-8.8c0-.3.2-.4.2-.4,0,0,.3-.2.9-.4h.3v-1.7c-6.3.5-10.3.4-10.3.4l-.2,1.9s2.8-.4,4.2.2c.4.2.6.6.7,1.2,0,.7.2,2,.2,3.8v3.5c0,.4-.1.7-.2.8-3.5,3.6-9.5.7-9.5.7,0,0-7-3.6-7-12.7s.4-4.3,1.4-6.2C9.4,2.6,15.9,2.8,15.9,2.8c0,0,5.9-.2,6.5,6h1.4c-.3-3.6,0-7.3,0-7.3l-1-.6s-.4.9-1.1.7c0,0-.2,0-.9-.2,0,0-8.3-3.3-15.1,3.2-1.5,1.4-2.8,3-3.6,5-.9,2-1.3,4.2-1.3,6.5,0,15.4,14,15.4,14,15.4,4,.2,8-.9,8-.9,0,0,1.5-.4,3-.6" class="st0"></path>
  </g>
</svg>