<svg viewBox="0 0 666 333" version="1.1" xmlns="http://www.w3.org/2000/svg" id="HMC_x5F_Logo">
  
  <defs>
    <style>
      .st0 {
        fill: #fff;
      }
    </style>
  </defs>
  <path d="M293,332h-19.6v-28.3h18.8v3.2h-15.4v8.9h13.9v3.2h-13.9v9.8h16.2v3.2h0ZM324.3,332h-4.3l-8.7-12.2h-5.6v12.2h-3.4v-28.3h12.6c6.2,0,8.4,4.3,8.4,8.1s-2.7,7.3-7.7,7.9l8.9,12.4h-.2ZM305.6,316.6h7.7c4.2,0,6.4-1.7,6.4-4.8s-1.9-4.8-6-4.8h-8.2v9.7h.1ZM266.1,303.7h-3.6l-8.5,22.6-8.3-22.6h-3.7l10.6,28.3h2.9l10.6-28.3ZM399.6,332h-4.3l-8.7-12.2h-5.6v12.2h-3.4v-28.3h12.6c6.2,0,8.4,4.3,8.4,8.1s-2.7,7.3-7.7,7.9l8.9,12.4h-.2ZM389,306.9h-8.2v9.7h7.7c4.2,0,6.4-1.7,6.4-4.8s-1.9-4.8-6-4.8h.1ZM458.3,332h-4.3l-8.7-12.2h-5.6v12.2h-3.4v-28.3h12.6c6.2,0,8.4,4.3,8.4,8.1s-2.7,7.3-7.7,7.9l8.9,12.4h-.2ZM439.7,316.6h7.7c4.2,0,6.4-1.7,6.4-4.8s-1.9-4.8-6-4.8h-8.2v9.7h0ZM429.1,332h-3.7l-3.1-8.3h-11.5l-3.3,8.3h-3.6l11.5-28.3h2.7l11,28.3h0ZM416.6,308.8l-4.6,12h9.2l-4.5-12h-.1ZM342.9,320.2l10.7-16.6h-4l-8.3,13.2-8.3-13.2h-4.1l10.7,16.6v11.8h3.4v-11.8h-.1ZM485.2,328.8h-16.2v-9.8h13.9v-3.2h-13.9v-8.9h15.4v-3.2h-18.8v28.3h19.6v-3.2h0ZM162.9,237.2c0,2-1.5,3.7-3.3,3.7s-3.3-1.6-3.3-3.7,1.5-3.7,3.3-3.7,3.3,1.6,3.3,3.7M452.1,207.6c-.4.4-.7.6-1,.5s-3.3-2.1-7.7-2.1-12.3,5.1-19.8,15.8c-7.5,10.7-7.8,14.6-9.7,20.2-2,0-4.4-3.6-4.4-5.2,0-2.7,2.7-12,3.4-13.2-3.3,4.4-12.3,17.8-25,17.8s-13.3-11.4-13.3-13.6c-6.4,6.7-15.7,13.4-27.5,13.4s-12.2-6.7-12.2-7.7c0-5.9,6.9-13.7,9-9.7.3.7-6.6,3.7-6.6,10.1s1.8,4.6,6.1,4.6c6.8,0,10-6,11.3-7.9,5.4-8.2,2.8-22.6,2.8-22.6,0,0-5.6,5-10.4,5.7-2.7.4-6.4-.5-7.6-.9-.6,3.2-2.1,6.8-4.5,10.9-7.2,11.7-14.2,17.6-21.1,17.6s-17.2-10.3-8-25.2c6.2-10.1,17.1-15.6,24.7-15.6s9,3.9,9.2,8.6c.9.7,3.7,2.8,7.1,2.6,6.3-.4,9.5-5.5,10.1-6.7,1.9-4.4,3.6-7.5,5.2-9.5,2.6-3.4,4.8-5.1,6.6-5.1s5.4,2.2-1.6,8.7c-3.1,2.8-5,4.4-7,6.6s4.1,13.5,4.1,19.5-1.5,8.6-5.5,12c6.2-3.1,11.9-7.8,16.9-13.9.6-2.1,1.7-4.3,3.1-6.5,4.4-6.7,15.6-16.1,24.2-16.1s7.2,4.8,7.2,5.6c.1,3.9-7.3,11.8-18.3,11.8s-2-.1-2.7-.4c-13.4,19.5-3.4,21.9-.4,21.9,11.2,0,26.1-21.8,29.6-26.4,1.7-2.5,5.7-12.7,17.1-11.7-2.2,1.8-4.5,4.2-6.9,7.3-2.4,3.1-4.4,6.3-5.9,9.7l.8.5c1.7-2.2,13.2-17.5,22-17.5s6.1,2.4,7,4.1c.4.9.4,1.6,0,2h-.4ZM389.4,216.8c.5.1,6.7,1.4,13.6-6.2,5.2-5.7,3.2-8.1,2.5-8.3-1.2-.6-3.9.8-7.7,4.3-3.3,3.3-6.2,6.7-8.4,10.2ZM332.9,202.3c-5.3,0-11.6,6.3-18.9,18.8-8.2,14.1-4.7,18.4-.8,18.4s10.3-6.4,18-19.2c9.7-16.1,3.7-18,1.7-18h0ZM373.1,160.5c-.8-1.5-6.8-8.1-19.5-8.1s-39.9,5.8-74,41.7c-4.8,5-13,14.6-24.7,28.7,2.9-5.3,6.1-13.9,10.8-25.5,6.4-15.6,7.2-29.7,18.6-35.5,1.7-.8,3.2-1.2,3.9-1.3.7,0,1.3-.2,1.4-.6,0-.7-2.1-.6-4.2-.3-37.4,5.1-53.9,39.6-73.1,64.1-19.6,25-73.3,105.8-147.6,105.8s-56.7-25-56.7-39.2-.5-1.8-.8-1.8-.5,1-.5,1.8c0,17.9,14.8,41.4,61.4,41.4,77.2,0,143.6-91,154.3-106.4,23.7-34.1,27.5-53,58.7-63.2-12.5,4.1-20.2,17-25,34.5-3.1,14.1-5.5,25.2-7,33.2-3,3.7-4.8,5.9-5.6,7.1-1.3,1.9-1.3,5.8,1.7,5.8s3.4-1.8,5-5.5c.7-1.6,1.2-3.6,1.6-6,11.5-13.9,21.7-25.6,30.7-35.1,13-13.8,27.5-25.1,43.5-34,4.1-2.3,8.7-4.1,13.9-5.4-13.8,6.3-27.3,19-40.7,38.3-4.5,6.6-8.5,13.9-12,22-10.3,23.3-2.2,24.9-.6,24.9,4.3,0,1.9-9,18.9-40.2,22.4-41.1,39.3-47,47.5-47s16.4,3.9,18.3,5.9c.8.8,1.5,1.8,2,1.6.8-.4-.1-1.7-.1-1.7M473,238.3c4.4,0,6-.8,9.8-2.9-5.6-7.7-5.8-17-5.2-21.2-1.4.7-4.4,2.7-6.7,4.4-4.8,3.7-6,7-6,11.3s3.6,8.4,8.1,8.4h0ZM498.9,221.7c.2.3.2,1.1,0,1.7-.2.4-3.5,6.9-10.7,11.9,1.2,1.6,2.2,2.1,3.9,2.3,2.1.3,3.6-.8,5.8-3,0-.2.8-.5,1.1,0,.4.6,0,1.4,0,1.8-1.2,1.8-3.2,4.2-6.5,4.6-3.2.4-5.8-.5-7.9-2.9-4.4,2.7-7.6,4.1-12.8,4.1s-11-4.4-11-10.9,2.8-12.4,17.1-19.6c.8-4.7,4.4-16.3,11.1-16.3s3.8,11.7-7.3,16.6c0,2.6.2,14,5.2,21.2,7-4.4,11-11,11.2-11.3.3-.4.7-.3.9,0M484.9,200.6c-1.1,1.7-2.4,3.6-3.3,9.4,2.6-1.4,4.7-2.6,6.8-5.5,2.1-3,2.6-5.9.9-6.8-1.5-.7-3.2,1.1-4.3,2.8M659.8,237.2c0-2-1.5-3.7-3.3-3.7s-3.3,1.6-3.3,3.7,1.5,3.7,3.3,3.7,3.3-1.6,3.3-3.7M654.4,223c-5,7.8-15.3,19.6-26.9,18.6-11.4-1-12.1-11.2-12-13.5-1.8,2.1-3.8,4.3-6.3,6.6-4.7,4.6-9,6.8-12.8,6.8s-6.7-1.4-8.1-4.2c-1.5-2.6-1.7-5.8-.8-9.4,0,.2-17.2,19.5-35.6,20.1-10.6.3-20.8-3.9-26.4-12.6-10.5-16.3-3.3-36.5,7.3-48.8,9.8-11.4,23.3-20.8,38.5-26.3-2.3-.6-6.7-2-13.6-1.7-6.5.3-11,1.4-18.7,9.1s-1,.7-1.5.3c-.4-.3-.3-1,.3-1.8,5.1-6.9,12.4-10.9,20.3-11,10.4,0,13.4,1.8,18.5,3.2,8.6-2.6,15.2-4,24.7-4,17.4,0,28.7,5.7,28.7,10.8s-.3,8.8-28.5,2.5c-5.5-1.2-15.6-3.9-23.7-5.8-12.2,5.1-24,13.2-33.3,24.5-13.4,16-20.1,36.9-13.1,48.9,3.4,6,10.4,10.3,19.6,10.3,15.5,0,33.4-18.4,37.2-22.8.8-1,4.5-5.7,4.7-6,4.2-6.9,8.3-11.6,12.2-14,1.8-1.1,4.4-1.5,7.8-1.3-8.3,11.2-14.1,20.4-17.2,27.8-2.2,5.1-3,10.2.9,10.2s6.2-2.1,10.5-6.3c3.5-3.4,6.7-7,9.5-10.7.6-1.8,1.6-3.7,2.8-5.6,6.6-10,17.6-16.1,24.2-16.1s7.2,4.5,7.2,5.6c0,7.1-11.9,11.8-18,11.8s-2.3-.1-2.9-.4c-13.3,19.5-3.3,21.9-1.1,21.9,7.9,0,14.9-6.9,23.6-18.1.6-.8,1.3-1,1.9-.5.6.5.7,1.1.2,1.9h-.1ZM630.3,217.1c.5.1,6.5,1.3,13.6-6.2,5.3-5.6,3-8,2.5-8.3-1.3-.6-3.9.8-7.7,4.3-3.3,3.3-6.1,6.7-8.4,10.2h0ZM582.1,160.2c6.3,1.6,13.2,3.7,18.7,5,14.2,3.4,28.3,4.3,26.7-1-1.4-4.9-14.3-7.8-25.3-7.7-6.8,0-13.4,1.5-20.2,3.8h0ZM617.1,190.4c0-2-1.5-3.7-3.3-3.7s-3.3,1.6-3.3,3.7,1.5,3.7,3.3,3.7,3.3-1.6,3.3-3.7M235.2,165.6c1.6,1.2,1.9,2.4,1.2,2.6-.8.2-1.6-.5-4-1.9-2.8-1.6-10.1-3.8-16-3.8-22.5,0-35.7,13.5-53.9,41.5-7.8,12.1-14.2,34.5-15,36.6-.5,1.3-1.3,2.1-2.3,2.2-1.4,0-2.5-.6-3.3-2-2.1-3.8-.6-11.4,4.4-22.7.2-7.4-3.5-14.5-11.7-20.9-.7,1.3-1.7,3.3-2.8,5.8-20.8,45.3-57.9,48.7-71,48.7-35.7,0-38.6-23.7-38.6-30.9s5.7-39.1,61.4-39.4c29.8-.1,46,10.4,46,10.4,0,0,11.6-16.3,21.1-22.9,8-5.5,11.9-5.5,11.9-5.5,0,0-32.2-8.5-72.8-8.1-25.7.2-46.6,8.1-45.6,18.8.4,4.2,1.6,5.8,1.6,5.8,0,0,.8,1.1.2,1.4-.4.2-1,0-1.5-.5s-3.4-4.5-3.4-9.5c0-12.7,20.6-20.7,46.1-20.7s76.7,11.4,80.1,12.5c2.9.9,4.3,1.6,4.1,2.1-.1,0-.6,0-1.4-.3s-2.1-.6-4.4-.4c-9.6.7-18.7,10-30.3,31,10.7,8.3,12.4,15.7,12.7,18,3.1-6.4,6.2-11.8,9.2-16.1,17.4-24.7,36.9-37,58.3-37s15.1,1.7,19.5,5.1M128.5,193.2c-10.8-6.2-23.9-9.4-39.3-9.8-28.2-.7-64.2,20.5-63.7,41.5,0,4.5,3.8,24.6,33.1,24.6s43.9-15.9,62.7-45.4c5.9-9.2,7-10.9,7-10.9h.2ZM365.3,108.2c-.9,0-1.7-.3-2.3-1l-11.8-11.8h-20l-10.4-10.4V3.3c0-1.3,1.1-2.4,2.4-2.4h84.3c1.3,0,2.4,1.1,2.4,2.4v81.7l-10.4,10.4h-20l-11.8,11.8c-.6.6-1.4,1-2.3,1h-.1ZM331.7,94.2h20l12.2,12.2c.4.4.9.6,1.4.6h0c.5,0,1-.2,1.4-.6l12.2-12.2h20l9.7-9.7V3.4c0-.6-.5-1.2-1.2-1.2h-84.3c-.6,0-1.2.5-1.2,1.2v81.2l9.7,9.7h0ZM324.8,63V4.9h40.2l-40.2,58.1ZM326,6.2v52.8l36.5-52.8s-36.5,0-36.5,0ZM405.8,63l-40.2-58.1h40.2v58.1ZM368,6.2l36.5,52.8V6.2s-36.5,0-36.5,0ZM365.3,103.8l-12.5-12.5h-20l-3.7-3.7,36.2-52.3,36.2,52.3-3.7,3.7h-20l-12.5,12.5ZM333.4,90.1h20l11.9,11.9,11.9-11.9h20l2.6-2.6-34.6-50-34.6,50,2.6,2.6h.2ZM362.5,11.3v25.2l1.9-2.8V8.5l-1.9,2.8h0ZM358.8,16.7v25.2l1.9-2.8V13.9l-1.9,2.8h0ZM355.1,22v25.2l1.9-2.8v-25.2l-1.9,2.8h0ZM351.4,27.4v25.2l1.9-2.8v-25.2l-1.9,2.8h0ZM347.7,32.8v25.2l1.9-2.8v-25.2l-1.9,2.8h0ZM344,38.1v25.2l1.9-2.8v-25.2l-1.9,2.8h0ZM340.2,43.5v25.2l1.9-2.8v-25.2l-1.9,2.8h0ZM336.5,48.8v25.2l1.9-2.8v-25.2l-1.9,2.8h0ZM332.8,54.2v25.2l1.9-2.8v-25.2l-1.9,2.8h0ZM329.1,59.5v25.2l1.9-2.8v-25.2l-.6.8-1.3,1.9h0ZM325.4,64.9v18.2l1.9,1.9v-22.8l-1.9,2.8h0ZM403.3,62.1v22.8l1.9-1.9v-18.2l-1.9-2.8h0ZM399.6,56.8v25.2l1.9,2.8v-25.2l-1.3-1.9-.6-.8h0ZM395.9,51.4v25.2l1.9,2.8v-25.2l-1.9-2.8h0ZM392.2,46.1v25.2l1.9,2.8v-25.2l-1.9-2.8h0ZM388.4,40.7v25.2l1.9,2.8v-25.2l-1.9-2.8h0ZM384.7,35.4v25.2l1.9,2.8v-25.2l-1.9-2.8h0ZM381,30v25.2l1.9,2.8v-25.2l-1.9-2.8h0ZM377.3,24.6v25.2l1.9,2.8v-25.2l-1.9-2.8h0ZM373.6,19.3v25.2l1.9,2.8v-25.2l-1.9-2.8h0ZM369.9,13.9v25.2l1.9,2.8v-25.2l-1.9-2.8h0ZM366.2,8.6v25.2l1.9,2.8V11.4l-1.9-2.8h0ZM389.1,79.7v-2h1.6c.3,0,.4.2.4.5h.7v-1.6h-4.9v1c.4,0,.8.2.8.7v3.7c0,.4-.3.7-.8.7v1h4.9v-1.6h-.7c0,.3-.2.5-.4.5h-1.6v-2h1.3c.3,0,.3.3.3.6h.8v-2.2h-.8c0,.3,0,.6-.3.6h-1.3ZM354.6,68.6v-2.7h5.7v2.7c0,.7-.6,1.2-1.3,1.3v1.5h5v-1.5c-.7,0-1.3-.5-1.3-1.3v-6.9c0-.7.6-1.2,1.3-1.2v-1.4h-5v1.4c.7,0,1.3.4,1.3,1.2v2.3h-5.7v-2.3c0-.7.6-1.2,1.3-1.2v-1.4h-5v1.4c.7,0,1.3.4,1.3,1.2v6.9c0,.7-.6,1.2-1.3,1.3v1.5h5v-1.5c-.7,0-1.3-.5-1.3-1.3h0ZM370.3,69.8c-.6,0-1.2-.4-1.2-1.1l.2-6.2,3,4.1h.8l3.2-4.1.2,6.3c0,.6-.5,1.1-1.2,1.1v1.5h4.7v-1.5c-.6,0-1.2-.4-1.2-1.1l-.3-7.6c0-.3.3-.6.7-.6v-1.4h-3.1l-3.5,4.4-3.3-4.4h-3v1.4c.4,0,.7.3.7.6l-.3,7.6c0,.6-.6,1.1-1.2,1.1v1.5h4.7v-1.5h0ZM354.6,86.3c-.9.1-3.1-.1-5.1-.9,1.8-2.3,3.1-5.2,3.2-8.2l-1.4,1c0,1.7-1.7,4.3-3.7,6.2-1.3-.9-2.5-1.6-3.3-2.7,1.5-1.1,3.1-2.4,3.5-4.4.3-1.8-1.1-3.5-2.9-3.5s-3.5,1.7-3.5,3.6.1,2.6.5,3.6c-.6.4-1.1.8-1.7,1.5-1.6,1.8-1.6,4.9.4,6.3,2.1,1.5,4.9.6,7.3-1.6,2.5,1.4,5,2.1,6.2,1.1s.8-1.5.5-2h0ZM345.7,75.8c.6.2.6,1.5.3,2-.6,1.1-1.4,1.7-2.4,2.2,0-.3-.2-.6-.2-1-.2-1.7,1-3.8,2.3-3.3h0ZM341.9,86.7c-1.1-.8-.5-2.6,1-3.9.6.8,1.3,1.5,2.2,2.3.3.2.5.5.8.7-1.5,1.1-3.1,1.6-4,.8h0ZM385.4,85c0,1-1.6,2.2-3.1,2.2-2.3,0-3.6-1.8-3.6-4.6s1-5,3.5-5,3.1,1.9,3.1,3.7h.9v-4.7h-.8c-.8-.9-2.3-1.6-4-1.6-3.4,0-6.2,2.8-6.2,7.6s4,7.2,6.8,7.2,3.9-1.1,4.2-1.7v-3h-.8ZM370.7,47.5h-4.1l-1.3-3.9-1.3,3.9h-4.1l3.3,2.4-1.3,3.9,3.3-2.4,3.3,2.4-1.3-3.9,3.3-2.4h.2ZM368.6,88.2c.9-.1,1.5-.9,1.5-1.8h0c0-1-.7-1.7-1.5-1.9h0c.2-1.5.9-5.8,3.6-5.1-.1-1-.6-2.6-1.8-2.6-2.5,0-3.2,5.9-3.4,7.7h-.9l1.3-8.1-2.1-4-2.1,4,1.3,8.1h-.9c-.2-1.8-.9-7.7-3.3-7.7s-1.7,1.6-1.8,2.6c2.7-.8,3.5,3.6,3.6,5.1h0c-.9.1-1.5.9-1.5,1.8h0c0,1,.6,1.7,1.5,1.8-.2,1.5-.9,5.8-3.6,5.1.1,1,.6,2.6,1.8,2.6,2.4,0,3.1-5.8,3.3-7.7h.9l-1.3,8.1,2.1,4,2.1-4-1.3-8.1h.9c.2,1.8.9,7.7,3.3,7.7s1.7-1.6,1.8-2.6c-2.7.8-3.4-3.6-3.6-5.1h.1ZM395.9,23.6c.9-.1,1.5-.9,1.5-1.8h0c0-1-.7-1.7-1.5-1.9h0c.2-1.5.9-5.8,3.6-5.1-.1-1-.6-2.6-1.8-2.6-2.5,0-3.2,5.9-3.4,7.7h-.9l1.3-8.1-2.1-4-2.1,4,1.3,8.1h-.9c-.2-1.8-.9-7.7-3.3-7.7s-1.7,1.6-1.8,2.6c2.7-.8,3.5,3.6,3.6,5.1h0c-.9,0-1.5.9-1.5,1.8h0c0,1,.6,1.7,1.5,1.8-.2,1.5-.9,5.8-3.6,5.1.1,1,.6,2.6,1.8,2.6,2.4,0,3.1-5.8,3.3-7.7h.9l-1.3,8.1,2.1,4,2.1-4-1.3-8.1h.9c.2,1.8.9,7.7,3.3,7.7s1.7-1.6,1.8-2.6c-2.7.8-3.4-3.6-3.6-5.1h.1ZM341.2,23.6c.9-.1,1.5-.9,1.5-1.8h0c0-1-.7-1.7-1.5-1.9h0c.2-1.5.9-5.8,3.6-5.1-.1-1-.6-2.6-1.8-2.6-2.5,0-3.2,5.9-3.4,7.7h-.9l1.3-8.1-2.1-4-2.1,4,1.3,8.1h-.9c-.2-1.8-.9-7.7-3.3-7.7s-1.7,1.6-1.8,2.6c2.7-.8,3.5,3.6,3.6,5.1h0c-.9,0-1.5.9-1.5,1.8h0c0,1,.6,1.7,1.5,1.8-.2,1.5-.9,5.8-3.6,5.1.1,1,.6,2.6,1.8,2.6,2.4,0,3.1-5.8,3.3-7.7h.9l-1.3,8.1,2.1,4,2.1-4-1.3-8.1h.9c.2,1.8.9,7.7,3.3,7.7s1.7-1.6,1.8-2.6c-2.7.8-3.4-3.6-3.6-5.1h.1Z" class="st0"></path>
</svg>