<svg xmlns="http://www.w3.org/2000/svg" fill="none" viewBox="0 0 200 23" height="23" width="200">
<path fill="white" d="M16.5439 12.1155H4.1045V22.6437H0.897461V0.323944H4.1045V9.07042H16.5439V0.323944H19.751V22.6761H16.5439V12.1155ZM39.5763 0C45.9256 0 50.7524 4.95634 50.7524 11.5C50.7524 18.0113 45.8932 23 39.5763 23C33.2594 23 28.4003 18.0437 28.4003 11.5C28.4327 4.95634 33.2918 0 39.5763 0ZM39.5763 19.9225C44.1439 19.9225 47.5777 16.2944 47.5777 11.4352C47.5777 6.57606 44.1763 2.94789 39.5763 2.94789C34.9763 2.94789 31.5749 6.57606 31.5749 11.4352C31.6397 16.3592 35.0411 19.9225 39.5763 19.9225ZM61.1186 22.6761V0.323944H67.8242C71.3552 0.323944 73.6552 1.10141 75.4693 2.42958C78.2228 4.47042 79.9397 7.77465 79.9397 11.5324C79.9397 15.2254 78.2228 18.5944 75.4693 20.6352C73.6552 21.9634 71.3228 22.7408 67.7594 22.7408H61.1186V22.6761ZM74.0439 5.21549C72.6186 4.0169 70.8045 3.33662 67.6623 3.33662H64.2932V19.631H67.6623C70.8045 19.631 72.6186 18.9831 74.0439 17.7521C75.7608 16.262 76.7327 13.9944 76.7327 11.4676C76.7651 8.97324 75.7608 6.70563 74.0439 5.21549ZM90.2411 0.323944H93.4482V22.6761H90.2411V0.323944ZM108.414 6.25211V22.6761H105.207V0.323944H107.475L120.919 16.7479V0.323944H124.126V22.6761H121.858L108.414 6.25211ZM135.852 0.323944H139.059V9.7507L148.259 0.323944H152.503L142.428 10.6901L153.183 22.6437H149.102L139.124 11.4676V22.6437H135.885V0.323944H135.852ZM173.041 9.07042V12.1155H165.72V19.5986H175.633V22.6437H162.513V0.323944H175.309V3.36901H165.72V9.10282H173.041V9.07042ZM196.559 9.07042V12.1155H189.238V19.5986H199.151V22.6437H186.031V0.323944H198.827V3.36901H189.238V9.10282H196.559V9.07042Z"></path>
</svg>
