<svg viewBox="0 0 368 185.1" version="1.1" xmlns="http://www.w3.org/2000/svg" id="Layer_1">
  
  <defs>
    <style>
      .st0 {
        fill: #fff;
      }
    </style>
  </defs>
  <path d="M26.1,110.8v51h9.9v-21.6h25.5v21.6h9.8v-51h-9.8v19h-25.5v-19h-9.9" class="st0"></path>
  <path d="M122.5,110.8v26.6c0,7.7-.8,15.9-13.4,15.9s-13.5-8-13.5-15.9v-26.6h-9.9v27.3c0,12.2,3.4,25.2,23.4,25.2s23.3-13.2,23.3-25.2v-27.3h-10" class="st0"></path>
  <path d="M205,110.8v51h34.2v-10.3h-24.3v-40.7h-9.9Z" class="st0"></path>
  <path d="M269.4,153.1c-9.6,0-17.2-7.5-17.2-17s7.6-17,17.2-17,17.2,7.5,17.2,17-7.6,17-17.2,17ZM269.4,109.3c-15.2,0-27.1,11.8-27.1,26.8s11.9,26.8,27.1,26.8,27.1-11.8,27.1-26.8-11.9-26.8-27.1-26.8Z" class="st0"></path>
  <path d="M300.6,110.8v10.4h15.9v40.6h9.9v-40.6h15.5v-10.4h-41.4Z" class="st0"></path>
  <path d="M172.8,152.5h-17.2v-12.8s17.3,0,17.3,0c5.1,0,7.3,2,7.3,6.6s-1.4,6.2-7.4,6.2h0ZM171.2,120.1c5.5,0,7.2,2,7.2,5.4s-1.5,5.8-7,5.8h-15.9s0-11.1,0-11.1h15.7ZM184.4,135.1c3.1-2.4,4.8-5.9,4.8-10.2s-1.7-14.1-17.4-14.1h-26v51h27.7c11.1,0,17.5-5.7,17.5-15.5s-2.3-8.6-6.6-11.2Z" class="st0"></path>
  <path d="M223.8,21.9h-9.7c0,9.8-3.8,15.7-14,20.5v-20.5h-9.8v24.1c-2.4.7-5,1.4-7.9,2.2h0c-2.1.5-4.2,1.1-6.2,1.6v-27.9h-9.8v31.2c-15.1,6-23.7,15-23.7,31h9.7c0-9.8,3.8-15.7,14-20.5v20.5h9.8v-24.1c2.4-.7,5-1.4,7.9-2.2h0c2.1-.5,4.2-1.1,6.2-1.6v27.9h9.8v-31.2c15.1-6,23.7-15,23.7-31Z" class="st0"></path>
</svg>