<svg viewBox="0 0 2215 316" version="1.1" xmlns="http://www.w3.org/2000/svg" id="Layer_1">
  
  <defs>
    <style>
      .st0 {
        fill: #fff;
      }
    </style>
  </defs>
  <path d="M1094.7,22.7c0-3.3,2.7-6,6.1-6.2,41.7-1.6,67.3-.6,78.2,3.2,22.8,7.8,35.4,27.8,35.4,56.2s-10.9,61.9-71.1,61.9h-49.2l.6-115.1ZM1229.5,213.1c0,43.5-23.8,66.3-70.5,67.8-13.6.4-25.7.5-27.5.4-27.2-.8-36.8-7.3-36.8-25.1l-.3-107.7h49.6c46.8,0,85.5,4.9,85.5,64.6ZM1072.7,289.5l76.2.2c78,0,121-27.9,121-78.6s-22.9-61.1-61.3-70.2l-8.7-2.1,8.4-3.2c28.9-11.1,44.8-33.6,44.8-63.3s-13.2-44.1-32.1-53.4c-21-10.5-41.9-12.6-68.9-12.6h-123.5c0-.1-1.1,7.6-1.1,7.6,25.1,1.7,30.5,3.9,30.5,21.1v227.2c0,14.7-9.9,17.8-29.5,18.4-.3,1.7-.9,6-1.2,7.7,1.4.6,35.8,1.1,45.5,1.2Z" class="st0"></path>
  <path d="M867.6,284.9c-64,0-97.5-65.9-97.5-130.9,0-98,51.5-141.8,102.5-141.8s99.9,33.8,99.9,138.3-36.7,134.5-104.8,134.5ZM869.6,3.3c-48.3,0-139.6,31.2-139.6,149s29,141.3,137.6,141.3,144.9-89.8,144.9-142.9c0-101.3-74.1-147.5-142.9-147.5Z" class="st0"></path>
  <path d="M672.3,34.6s-32.7-31.3-88.2-31.3c-83.5,0-144,61.9-144,147.1s53.8,143.3,140.4,143.3,94.1-31.5,94.1-31.5l10.3,21.4c.1.3.4.5.7.5h5.8l.7-89.2-6.3-.9c-12,55.9-51.8,90.6-104.2,90.6s-101.5-67-101.5-131.8S512.6,12.1,584.1,12.1s92.2,49.6,99.7,96.3l6.4.8.7-93c-1.5-.2-4.7-.8-5.2-.9,0,0-.2,0-.7.6-.8.9-12.6,18.6-12.6,18.6Z" class="st0"></path>
  <path d="M248.6,171.2l43.9-115.1,46.3,115.1h-90.2ZM429.6,276.7c-7.4-3.9-13.6-13-21.3-31.5-7.6-18.4-25.7-63.7-43.2-107.6-18.6-46.6-36.1-90.6-40.6-101-4.3-9.8-12.2-29.8-14.7-36.2-2.6,5.2-10.9,19.3-28.2,29.3,2,4.4,5.2,12.7,5.2,12.7,0,0-75.5,195.2-81.9,211.2-5.9,14.8-12.7,24.5-28,27.2l-.9,7.2h73.1c0,0,1-7.1,1-7.1-4.4-.4-21.9-2.4-26.6-6.1-5.6-4.4-8.3-9.3-4.7-20.4,5.6-17.2,26.2-73.7,26.2-73.7h97.6s24.2,64.3,24.6,65.5c3.6,10.5,6.5,18.8,2.3,24.8-4.7,6.7-15.1,9.8-31.4,9.5l-1.2,7.4h105.8l.9-6.7c-2.3-.4-8.5-1.6-14.2-4.6Z" class="st0"></path>
  <path d="M196.5,13l.8-5.7-101-.4-4.9,5.6c20.6.6,25,2.5,30.9,9.3,4.3,4.9,5.5,17.2,5.6,23,0,7.1,0,150.4,0,150.4,0,33.8-3.3,51.5-12.1,65.5-9.9,15.6-25.9,24.5-44,24.5h0c-13.5,0-28.6-7.5-31.3-21.8-.3-1.7-.6-9.3-1.7-12.3-2.3-6.2-8.1-11.1-15.1-13-10.1-2.6-17.3,1.8-20.4,6.2-4.1,5.8-3.9,14.8.7,21.8,9.2,14.2,33.3,22.6,52.8,25.6,18.6,2.9,38.5,1.5,54.7-3.9,12.7-4.2,21.9-10.3,31.9-21.1,14.1-15.2,20.4-40.7,20.4-84.2s0-137.9,0-144.1c0-6.2-.2-12.5,4.7-17.7,7.4-7.7,24.3-7.9,28.3-7.8Z" class="st0"></path>
  <path d="M2069.7,284.9c-64,0-97.5-65.9-97.5-130.9,0-98,51.5-141.8,102.5-141.8s99.9,33.8,99.9,138.3-36.7,134.5-104.8,134.5ZM2071.7,3.3c-48.3,0-139.6,31.2-139.6,149s29,141.3,137.6,141.3,144.9-89.8,144.9-142.9c0-101.3-74.1-147.5-142.9-147.5Z" class="st0"></path>
  <path d="M1414.5,257.3c-30.6-8.2-48.5-39.6-45.1-75.5,2.7-28.3,24.4-40.6,33.5-46.8,14,19.1,54.1,64.9,87.5,99.5-30,26-56.1,28.2-75.9,22.8ZM1401.9,35.9c3-7.7,9-13.4,17.3-16.4,25.3-9.1,48.6,3.2,57.6,19.5,10.4,18.7,2.3,41-20.6,56.8-5.2,3.6-22.3,13.8-22.3,13.8,0,0-18.9-20.4-27.8-38.3-6.5-13-8.1-25.5-4.2-35.5ZM1782.4,293.7c58.8,0,94.1-31.5,94.1-31.5l10.3,21.4c.1.3.4.5.7.5h5.8l.7-89.2-6.3-.9c-12,55.9-51.8,90.6-104.2,90.6s-101.5-67-101.5-131.8,32.6-140.6,104-140.6,92.2,49.6,99.7,96.3l6.4.8.7-93c-1.5-.2-4.7-.8-5.2-.9,0,0-.2,0-.7.6-.8.9-12.6,18.6-12.6,18.6,0,0-32.7-31.3-88.2-31.3-83.5,0-143,61.1-144.2,146.3-1.3,89.6,59,122.7,59,122.7,0,0-21.8,27.9-54.3,29.1-55.5,2-109.8-78.4-121.2-88.3,12.1-15.5,34.1-50.3,47.8-59.4,13.1-8.7,25-9.6,28.4-9.6l1-5.8h-71.8c-.6,2.9-.9,4.7-1.2,5.8,6.5.1,15.7.4,20.2,3.8,3.4,2.6,3.9,5.7-2.1,16.4-7,12.4-20.4,31.1-28.9,41.3-15.4-18-64.8-75.5-80.2-90.7,35.2-15.8,67.4-31.2,68.5-60.5.6-14.5-10.5-40.5-42.8-48.4-10-2.4-35.7-6.2-58.8,11.8-8,6.3-26.7,24.3-26.5,55.8,0,16.7,4.9,33.3,19.1,54.6-73.2,36.9-63.3,90.7-60,106.2,4.8,21.8,30.3,55.4,78.7,54.4,51-1.1,82.7-44.7,82.7-44.7,0,0,18.4,18.7,30,29.1,46.9,42.3,94,47.4,122.5,38.9,36.4-10.8,54.3-36.8,54.3-36.8,0,0,27.9,18.3,76,18.3Z" class="st0"></path>
</svg>