<svg viewBox="0 0 3000 2851.4" version="1.1" xmlns="http://www.w3.org/2000/svg">
  <defs>
    <style>
      .cls-1 {
        fill: #fff;
      }
    </style>
  </defs>
  
  <g>
    <g id="Calque_1">
      <g>
        <path d="M2463.1,1044.9c-25-14.4-54.4-12.9-77.5,1-36-31.3-88.5-68.1-149.6-103.3-54.8-31.7-106.9-56.4-149.6-72.5,31.6-58.5,55.1-112.5,67.5-153,18-1.6,34.9-11.5,44.6-28.4,15.8-27.5,6.4-62.6-21.1-78.5-27.4-15.8-62.6-6.5-78.4,21-9.7,16.8-9.9,36.4-2.3,52.8-26.3,28.2-57.6,69.9-89.4,120l-400.8-227.5,773-453.8L2498.7.7l-165.3,42.4-833.4,473L666.6,43.1,501.3.7l119.4,122,773,453.8-400.8,227.5c-31.8-50.1-63.2-91.8-89.5-120,7.6-16.4,7.4-36-2.3-52.8-15.9-27.6-51-36.8-78.5-21-27.5,15.8-36.9,50.9-21,78.5,9.7,16.8,26.6,26.7,44.6,28.4,12.4,40.5,35.9,94.4,67.6,153-42.8,16.1-94.8,40.8-149.6,72.5-61.2,35.2-113.6,72-149.6,103.3-23.1-13.9-52.6-15.4-77.6-1-36.6,21.1-49.2,68-28,104.6,21.2,36.6,68,49.2,104.6,28.1,24.9-14.4,38.4-40.8,38-67.6,45.1-15.5,103.1-42.6,164.2-77.9,54.8-31.6,102.3-64.4,137.5-93.4,35,56.7,69.9,104.2,98.7,135.1-7.5,16.3-7.4,36,2.3,52.7,15.9,27.5,51,36.9,78.5,21,27.5-15.8,36.9-50.9,21-78.4-9.7-16.7-26.6-26.7-44.5-28.4-11.3-36.8-31.8-84.9-59.3-137.4l449.9-264.2,450,264.2c-27.5,52.5-48.1,100.6-59.3,137.4-17.9,1.7-34.8,11.7-44.5,28.4-15.9,27.6-6.5,62.6,21,78.4,27.5,15.9,62.7,6.5,78.5-21,9.7-16.8,9.9-36.4,2.3-52.7,28.8-30.9,63.8-78.4,98.7-135.1,35.2,29,82.7,61.8,137.5,93.4,61.1,35.3,119.2,62.4,164.3,77.9-.4,26.8,13,53.2,38,67.6,36.6,21.1,83.4,8.6,104.5-28.1,21.1-36.7,8.6-83.5-28-104.7Z" class="cls-1"></path>
        <g>
          <path d="M256.5,2106.3c-52.2,0-77.5,0-77.5-31.8s11.2-50.5,15.9-67.3l111.1-387.1c9.3-35.5,26.1-82.1,81.1-82.1h19.7l4.6-16.9h-244.6l-4.6,16.9c42.9,0,70,3.7,70,36.4s-8.4,55-15.8,80.2l-107.4,368.4c-26,87.9-36.4,99-103.6,99l-4.7,16.8h454.5l59.8-175.3h-16.9c-59.7,124-112.9,142.8-241.7,142.8Z" class="cls-1"></path>
          <path d="M1289.6,2138.8h244.4l4.7-16.8c-37.4,0-72.8-4.6-72.8-40.2s13-57.9,17.8-74.6l49.4-169.8c36.5,9.3,73.7,15.9,111.2,15.9,106.4,0,244.4-67.1,244.4-189.5s-41-142.6-182.9-142.6h-250.1l-4.7,16.9c42.9,0,70,3.7,70,36.4s-8.5,55-15.9,80.2l-107.3,368.4c-26.2,87.9-36.5,99-103.6,99l-4.6,16.7ZM1611.5,1562.3c23.3-4.7,47.7-8.5,71.8-8.5,89.5,0,116.6,46.7,116.6,98.9s-28.9,168-179.2,168-54-5.6-80.2-13l70.9-245.3Z" class="cls-1"></path>
          <path d="M1238.2,1967.2c-71.9,125.1-134.4,139.1-268.8,139.1s-74.6,0-74.6-28.9,8.5-40.2,12.1-53.3l56-192.2h75.5c24.3,0,72,0,72,57s-2.8,29.8-6.6,46.6h16.8l63.4-224.9h-16.8c-38.2,88.6-74.7,88.6-150.2,88.6h-45.7l70.8-245.4h123.2c103.6,0,112.1,62.5,112.1,80.2s-.9,23.4-2.8,36.4h16.9l39.1-149.2h-445.1l-4.7,16.9c42.9,0,70,3.7,70,36.4s-8.5,55-15.9,80.2l-107.3,368.4c-26.1,87.9-36.4,99-103.6,99l-4.6,16.8h476.8l58.8-171.7s-16.8,0-16.8,0Z" class="cls-1"></path>
          <polygon points="653.4 1521.2 604.8 1677 621.6 1677 756 1521.2 653.4 1521.2" class="cls-1"></polygon>
          <path d="M2554,1521.2l-4.6,16.9c42.9,0,69.9,3.7,69.9,36.4s-8.5,55-15.8,80.2l-107.3,368.4c-26.1,87.9-36.4,99-103.6,99l-4.7,16.8h476.9l58.7-171.7h-16.8c-71.8,125.1-134.3,139.1-268.8,139.1s-74.6,0-74.6-28.9,8.5-40.2,12.1-53.3l56-192.2h75.5c24.3,0,71.9,0,71.9,57s-2.9,29.8-6.5,46.6h16.8l63.4-224.9h-16.7c-38.4,88.6-74.8,88.6-150.4,88.6h-45.7l70.9-245.4h123.2c103.7,0,112,62.5,112,80.2s-1,23.4-2.7,36.4h16.8l39.2-149.2h-445.3Z" class="cls-1"></path>
          <path d="M2389.7,1670.4l39.2-149.2h-445.1l-4.6,16.9c42.8,0,69.9,3.7,69.9,36.4s-8.4,55-15.8,80.2l-107.3,368.4c-26.2,87.9-36.4,99-103.5,99l-4.7,16.8h476.8l58.8-171.7h-16.7c-71.8,125.1-134.5,139.1-268.8,139.1s-74.7,0-74.7-28.9,8.5-40.2,12.2-53.3l56-192.2h75.5c24.3,0,71.9,0,71.9,57s-2.9,29.8-6.6,46.6h16.9l63.4-224.9h-16.8c-38.3,88.6-74.6,88.6-150.2,88.6h-45.7l70.9-245.4h123.2c103.6,0,112,62.5,112,80.2s-.9,23.4-2.8,36.4h16.8Z" class="cls-1"></path>
        </g>
        <g>
          <path d="M1167.6,2474.8h-9.9l-93.2,24,3.3,9.9c7.2-1.6,14.3-3.3,21.3-3.3,12.6,0,19.2,7.7,19.2,20.4s-2.3,16.3-4.9,25.7l-64.2,224.8c-14.8,51.4-26.8,57.9-66.2,57.9l-2.8,10h143.6l2.8-10c-22,0-42.9-2.6-42.9-23.4s7.7-34,10.4-43.9l83.4-292.1Z" class="cls-1"></path>
          <path d="M1393.3,2474.8c-50.4,0-94.1,35-94.1,87.7s21.4,60.3,41.1,84.3c-71.4,28-106.9,69.1-106.9,115.6s38.3,88.3,97,88.3,116.7-66.8,116.7-109.1-24.2-73.3-49.9-100.7c44.4-14.3,82.7-43.4,82.7-93.9,0-45.5-46.1-72.3-86.6-72.3ZM1406.6,2766.4c0,38.4-31.9,72.3-70.2,72.3s-67.4-24.7-67.4-65.8,32.9-98.1,81.2-115c26.8,30,56.4,65.7,56.4,108.5ZM1386.8,2629.9c-21.9-25.8-48.3-53.8-48.3-90s22.6-53.1,52.7-53.1,56.4,25.2,56.4,60.3-24.8,72.4-60.8,82.8Z" class="cls-1"></path>
          <path d="M1939.8,2474.8c-67.5,0-128.3,77.8-128.3,154.5s30.7,92,83.4,92,29-5.5,44.3-13.2l1.2,1.1c-32.9,58.2-96.5,120.2-163.9,131.6v9.9c132-7.6,253.2-136,253.2-268.5s-29-107.4-89.9-107.4ZM1953.6,2685.7c-13.2,9.4-24.2,16.5-40.6,16.5-38.3,0-53.1-31.6-53.1-65.7,0-82.8,43.8-149.7,77.9-149.7s53.7,35.6,53.7,65.3c0,43.8-18,94.8-37.8,133.6Z" class="cls-1"></path>
          <path d="M1734.3,2541c0-39.4-29.6-66.2-68.5-66.2s-69.6,26.2-84.4,61.8l9.8,2.8c11.5-19.8,28.4-36.8,53.1-36.8s45.6,22.4,45.6,49.4c0,55.8-74.1,80-119.5,85v9.7c54.2,2.8,94.3,34.5,94.3,91.6s-18,87.1-56.9,87.1-53.3-28.5-79.5-28.5-23.6,9.8-23.6,23c0,25.3,44.3,30.7,62.5,30.7,75.6,0,143.1-60.8,143.1-138.1s-19.8-71.1-56-83.8v-1.1c37.9-13.7,80-41,80-86.6Z" class="cls-1"></path>
        </g>
      </g>
    </g>
  </g>
</svg>