<svg viewBox="0 0 1800 500" version="1.1" xmlns="http://www.w3.org/2000/svg" id="Layer_1">
  
  <defs>
    <style>
      .st0 {
        fill: #fff;
      }
    </style>
  </defs>
  <g id="Layer_11">
    <path d="M839.2,475v-72.4h-50.8l-25.4-25.4h-67.3l-30.7-25.4h-67.6l-25.4-25.4h-70.9l-41.4-35.3h334.5l17,30.5,20.1-30.5h125.5l18.8,31,25.4-31h321.8l-38.1,35.3h-73.9l-22.3,25.4h-72.4l-23.1,25.4h-69.4l-23.4,25.4h-50.8v72.4h-110.2,0ZM857.5,463.3h73.9l-14-20.6h-47l-13,20.6h0ZM901.4,396.7l34.8,54.1v-106.7l-34.8,52.6h0ZM850.6,449.1l34.3-52.3-34.3-52.9v105.2h0ZM879.1,431.5h29.5l-15-25.4-14.5,25.4ZM948.9,319.8v70.4h47l11.4-11.9h-42.9l10.6-11.2h111.8l13.5-13.7h-76.2l10.2-11.2h148.3l13.2-14h-115.6l10.4-11.2h189.2l14.5-12.4h-289.1l-30.2,42.4-25.4-42.7h-111.3l-27.2,41.7-25.4-41.9h-295.4l15.5,12.7h190.3l12.4,11.4h-117.6l14.5,14h146.1l11.2,10.9h-78.2l15.7,13.7h110.5l11.7,11.2h-41.4l11.2,11.9h46.7v-70.9l110,.8h0ZM877.8,361.4l16.5,23.1,15-23.1h-31.5ZM871.2,352.3h46l14.2-22.3h-73.4l13.2,22.3ZM1633.2,241l-12.4,18h-17.8v-92h22.3c2.6,28.4,20.5,53.2,46.7,64.5,21.8,8.8,46.4,7.6,67.3-3.3,10.3-8.3,13.5-22.6,7.9-34.6-6.3-10.4-21.8-17.8-57.9-25.4-26.9-5.3-89.2-12.9-89.2-71.9s48.8-70.4,80.5-70.4c23.7-.2,46.8,7.5,65.5,22.1l11.7-16.8h20.1v86.9h-23.6c-3.1-37.8-35.6-66.3-73.4-64.5-13.6-1.3-26.9,4.1-35.8,14.5-4.2,6-5.5,13.5-3.8,20.6,1.5,6.6,3.6,19.1,60.2,31.3,19.6,4.1,90.7,12.2,90.7,73.4s-44.2,71.6-85.1,71.6c-26.9,1.1-53.2-8-73.7-25.4l-.3,1.3h.1ZM773.6,253.7c-39.1-25.2-60.3-70.5-54.6-116.6-1.4-59.9,46.1-109.6,106-110.9,5.2-.1,10.4.1,15.6.8,20.7,2.5,40.2,11,56.2,24.3l9.4-17.8h25.4v87.7h-25.6c-5.1-27-23-49.9-48-61.2-21-8.9-45.3-3.8-61,12.7-28.6,45.6-28.6,103.5,0,149.2,15.1,17.5,39.8,23.1,61,13.7,22.7-7.9,36.8-30.5,33.8-54.4,0-16.8-4.6-16.8-22.3-16.5h-14.2v-25.4h115.1v25.4h-9.4c-14.5,0-19.8,0-20.1,16.5v79.3h-25.4c-4-5.3-7.9-11.2-12.4-16.5-21.1,15.3-46.6,23.5-72.6,23.4-19.8.9-39.4-3.8-56.6-13.5h0l-.3-.2h0ZM347.1,265.4c-8.5,0-17-.6-25.4-1.8-43.5-6.7-79.5-37.2-93.2-79-14.2-43.5-3.4-91.3,28.2-124.5,24.5-23,56.9-35.5,90.4-35.1,10.5,0,20.9,1,31.2,3,32.7,6.5,61.1,26.6,78.2,55.1,22.1,41.6,20.4,91.9-4.6,131.9-24.3,33.4-63.7,52.4-104.9,50.8v-.5h.1ZM308,63.9c-22.6,14.7-31,50.8-31,82s9.9,72.4,40.4,85.6c9.4,3.8,19.4,5.6,29.5,5.3,9.8.3,19.6-1.1,28.9-4.3,34.3-13.5,40.9-52.1,41.2-86.9,3.6-30.5-7.5-60.9-30-81.8-11.8-7.7-25.8-11.5-39.9-10.9-13.5-.3-26.8,3.5-38.1,10.9h-1ZM1369.8,258.3v-27.7c30,0,36.8,2.5,36.8-15V73.8c0-16.5-8.1-13.5-36.8-13.5v-28.2h214.4v94.5h-25.4v-15.7c.9-14.3-2.8-28.5-10.4-40.6-9.4-7.1-21-10.7-32.8-10.2h-61.2v68.1c11.2,1.3,22.6-.6,32.8-5.3,8.9-7.1,9.7-36.3,9.7-36.3h23.9v116.4h-25.4s0-31.2-9.4-41.2c-9.4-9.9-32.8-5.8-32.8-5.8v76.2h62.5c15.3,2.4,30.4-4.8,38.4-18,2.6-4.3,4.3-9.1,5.1-14,.2-2.9.2-5.8,0-8.6v-29.5h25.4v96.6l-214.6-.3h-.2ZM1280.4,258.3l-111.8-166.4v121.9c0,20.6,8.1,17.3,38.9,17.3v27.2h-110.7v-27.4c27.4,0,33.5,3.3,33.5-19V78.6c0-11.2-1.5-18.3-14.2-18.3h-19.3v-28.2h90.7l97.3,142.3v-100.1c0-7.6,0-14.7-14.7-14.5h-20.8v-27.9h105.9v27.9h-25.4c-9.7,0-9.4,8.1-9.4,13.5v185h-40ZM967.4,258.3v-27.4c15.2,0,31.8,2.5,31.8-13.2V70.5c0-12.7-14.7-10.4-31.8-10.4v-27.9h113.8v27.9c-20.1,0-31.5-2.3-31.5,10.2v147.4c0,15.2,9.6,13.5,31.5,13.5v27.2h-113.8ZM8.8,258.3v-26.9c25.4,0,29.2-2.5,31.5-6.6.9-4.3.9-8.7,0-13V78.4c.3-4-.2-7.9-1.5-11.7-3.3-8.9-25.4-6.8-31-6.8v-28h118.1v27.7c-16,0-29.5,0-33.8,6.1-2.3,3.7-3.3,8.1-2.8,12.4v152.5h17.8c39.4,0,64.5,0,70.6-18,4-16.7,6.4-33.7,7.1-50.8h23.4v96.6H8.8ZM648.7,258.3s-74.4-110.5-111.8-166.4v121.9c0,19.8,8.9,17,38.8,17v27.4h-110.7v-27.4c29.5,0,33.5,2,33.5-19V78.4c0-11.2,2.3-17-8.6-18h-25.4v-28.5h90.7l96.8,142.5v-100.1c0-7.6,0-14.7-14.7-14.5h-20.8v-27.9h105.9v27.9h-25.4c-10.4,0-9.4,7.9-9.4,13.2v185.2h-38.9,0Z" class="st0"></path>
  </g>
</svg>