<svg viewBox="0 0 2540 1350" version="1.1" xmlns="http://www.w3.org/2000/svg" id="Layer_1">
  
  <defs>
    <style>
      .st0 {
        fill: #fff;
      }
    </style>
  </defs>
  <g id="_x23_c50124ff">
    <path d="M989.1,157c123.9-118.2,336.3-123.6,469.2-17,70.9,55.6,109.5,149,97.5,238.5-10.9,94.1-71.3,176.8-148.2,229.3,39.3,1.6,78.5,1.4,117.9.6,15.5-19.3,24.4-55.1,56.6-47.7-16.7,32.3-33.5,64.7-51.1,96.5-79.5-1.4-159.2,2.1-238.6-2,50.2-44.7,101.2-90.6,133.2-150.8,57.5-103.2,58.2-245.6-23.8-336.3-78.1-90.6-231.6-98.1-318.9-17-56.2,48.7-84.4,124.8-82.8,198.2.2,81.7,34.5,161,87.8,222,25.5,30.8,57.4,55.3,85.2,83.9-79.4,3.6-158.9,1.4-238.3,1.3-16.4-32.2-34-63.9-50.2-96.3,33.2-8.5,40.8,30,57.8,48.7,38.7-.4,77.4-.2,116-.2-61.6-44.5-114.3-105.6-136.4-179.4-30.8-93.7-5.5-204.3,67-272.2Z" class="st0"></path>
    <path d="M2266.3,771c86.3,164.9,167.9,332.3,253.7,497.4v2.5c-26.7,0-53.2,0-79.8-.5-16-32.3-32.5-64.5-48.1-96.9-83.2,0-166.2.2-249.3,0-16.8,32.2-33,64.7-49.1,97.2-27.1.2-54.1.2-81.2.2,85.9-165.9,169.6-333.1,253.8-499.9M2177,1103.7c59.8,2.4,119.8.8,179.7,1.1-29.9-58.8-59-118-90.3-176.1-29.9,58.3-58.7,117.2-89.5,175Z" class="st0"></path>
    <path d="M48.7,920.4c51.9-104.7,185-159.4,295.3-119.3,119.5,36.2,192.2,172,161.4,292.2-25.5,110.8-135.4,196-249.8,187.7-123.7-1.8-230.3-111-235.6-233.6v-23.4c3.3-35.8,11.4-71.9,28.7-103.6M210.2,866.4c-108.1,32.5-153.3,176.5-89.5,267.6,51.4,84.3,178.1,103.6,253.6,41,77.1-58,88.1-180.2,27.4-253.8-44.1-56-124.5-78.3-191.5-54.8Z" class="st0"></path>
    <path d="M527.8,1269.8c54.9-159.2,97.6-322.5,154.9-480.8,46.6,106.2,92.8,212.6,136.3,320,47.1-107.9,94.7-215.6,138.4-325,53.5,161.5,102.7,324.4,153.8,486.7-24.5.2-49.1.3-73.7.4-31.2-95-58-191.3-90.1-286-40.6,100.9-84.4,200.7-128.1,300.2-41.7-100.1-84.3-200-128.3-299-28.4,95-59,189.4-87.5,284.4-25.3.7-50.5.5-75.7-.8Z" class="st0"></path>
    <path d="M1712,796.4c97.5-28.5,205.2,15.4,264.9,95.4-19.4,14-38.6,28-57.9,41.9-43.9-66.1-134.5-94.9-208.2-64.6-84.2,30.7-131.3,131.5-104.1,216.3,19.8,76.3,96.8,132.3,175.6,126.2,74.1-.8,140.7-55.6,161.9-125.6-55.3-.4-110.5.3-165.8-.5,0-22.9.2-46,0-68.9,80.8,0,161.6.3,242.5,0,2.5,71.8-22.4,145.4-75.7,194.9-62.5,63.9-161.5,85.8-246.1,58.6-102.3-31.9-175.5-135.8-170.7-242.9,1.9-106.3,80.2-205.1,183.5-230.7Z" class="st0"></path>
    <path d="M1170.4,798.1c96.2.3,192.2,0,288.3,0-.3,22.9,0,46,0,68.9-71.9.7-143.9.3-215.8.2-.2,44.3-.3,88.6.3,132.9,69.7,0,139.5-.4,209.2.2,0,23-.4,46.2-.4,69.2-69.8-.8-139.5-.3-209.2-.4-.2,44.2.2,88.4,0,132.6,71.9,0,143.9-.6,215.8.3-.2,22.8,0,45.7.2,68.6-96.1.6-192.2.7-288.4-.2.3-157.4.3-314.9,0-472.3Z" class="st0"></path>
  </g>
</svg>