<svg viewBox="0 0 820.6 141.5" version="1.1" xmlns="http://www.w3.org/2000/svg" id="Livello_1">
  
  <defs>
    <style>
      .st0 {
        fill: #fff;
      }
    </style>
  </defs>
  <path d="M27,31.1h56c12.8,0,22.5,2.2,29.2,6.6,6.7,4.4,10,10.6,10,18.6s-3.3,14.2-10,18.6c-6.7,4.5-16.4,6.6-29.1,6.6h-39v34.9h-17.1V31.1ZM44.1,71.8h33.2c9.6,0,16.7-1.2,21.2-3.9,4.5-2.7,6.7-6.6,6.7-11.6s-2.2-8.9-6.7-11.6c-4.5-2.6-11.5-4-21.2-4h-33.2v31Z" class="st0"></path>
  <path d="M173.4,31.1h18.8l49.9,85.3h-18.8l-14-25.7h-54l-14.3,25.7h-17.5l49.9-85.3ZM160.7,81h43.3l-21.3-39.6h-.4l-21.6,39.6Z" class="st0"></path>
  <path d="M263.4,31.1h18.1l67.4,69.1h.3V31.1h16v85.3h-18.6l-66.9-68.4h-.3v68.4h-16V31.1Z" class="st0"></path>
  <path d="M401.9,31.1h88.3v9.7h-71.2v27h66.4v9.7h-66.4v29.3h71.7v9.7h-88.8V31.1Z" class="st0"></path>
  <path d="M520.2,31.1h60.2c12.1,0,21.5,2,28.5,6,6.9,4,10.4,9.4,10.4,16.3s-1.8,9.7-5.3,13.6c-3.5,3.9-9.2,6.6-16.9,8v.2c3.7.5,6.7,1.3,9,2.4,2.3,1.1,4.2,2.5,5.6,4,1.4,1.6,2.4,3.3,3,5.2.6,1.9,1.1,3.9,1.4,6,.2,2.1.4,4.2.6,6.4.2,2.2.5,4.3.9,6.3.4,2,1.1,4,2,5.9.9,1.9,2.2,3.5,4,5h-19c-1.2-.9-2-2.1-2.4-3.6-.4-1.5-.7-3.2-.8-5.1-.1-1.9-.2-3.9-.4-6-.1-2.1-.5-4.3-1.1-6.3-.5-2.1-1.1-4-1.8-5.9-.7-1.9-1.9-3.5-3.4-4.9-1.6-1.4-3.6-2.5-6.2-3.3-2.6-.8-5.9-1.3-9.9-1.3h-41.5v36.4h-17.1V31.1ZM572.7,70.3c3.9,0,7.7-.2,11.3-.6,3.6-.4,6.7-1.2,9.4-2.3,2.7-1.1,4.8-2.7,6.4-4.6,1.6-1.9,2.4-4.4,2.4-7.5s-1.8-7.6-5.4-10.4c-3.6-2.7-9.4-4.1-17.3-4.1h-42.2v29.5h35.4Z" class="st0"></path>
  <path d="M686.5,31.1h18.8l49.9,85.3h-18.8l-14-25.7h-54l-14.3,25.7h-17.5l49.9-85.3ZM673.8,81h43.3l-21.3-39.6h-.4l-21.7,39.6Z" class="st0"></path>
  <path d="M777.5,31.1h17.1v85.3h-17.1V31.1Z" class="st0"></path>
</svg>