<svg viewBox="0 0 2127.17 405" xmlns="http://www.w3.org/2000/svg" data-name="Calque 1" id="Calque_1">
  <defs>
    <style>
      .cls-1 {
        fill: #fff;
      }
    </style>
  </defs>
  <path d="M1593.13,51.35h.66l36.76,103.06h-75.16l37.74-103.06ZM302.16,51.35h.65l36.76,103.06h-75.16l37.75-103.06ZM166.12,87.01c0,37.82-18.75,62.5-54.27,62.5h-24.67V26.82h25.32c32.57,0,53.62,20.05,53.62,60.19M1471.13,247.66v-3.25l-24.54-12.01V27.34l29.45-12.01v-3.24h-103.06v3.21l29.45,11.89v205.36l-29.45,11.89v3.22h98.15ZM1083.43,247.66v-3.22l-29.45-11.89V27.19l29.45-11.89v-3.21h-103.06v3.21l29.45,11.89v205.36l-29.45,11.89v3.22h103.06ZM2114.03,247.66v-3.22l-29.45-11.89V27.19l29.45-11.89v-3.21h-103.06v3.21l29.45,11.89v205.36l-29.45,11.89v3.22h103.06ZM1333.72,237.84v-68.18l29.45-12.01v-3.24h-112.88v3.24l39.26,12.01v63.72c-10.29,4.54-25.23,7.14-37.85,7.14-64.43,0-92.32-51.62-92.32-109.06,0-61.02,27.9-111.32,92.32-111.32,19.59,0,39.18,4.87,54.12,12l23.25,53.56h4.65V20.36c-28.89-11.36-55.17-17.86-84.71-17.86-87.3,0-135.02,55.5-135.02,127.23s43.49,126.91,134.37,126.91c27.59,0,65.24-7.46,87.64-19.79M1656.57,232.41l-28.4,12v3.25h103.06v-3.22l-21.26-11.89-80.49-205.36,28.14-11.89v-3.21h-103.06v3.21l27.7,11.89-80.46,205.36-20.85,11.89v3.22h78.52v-3.25l-34.51-12,22.9-63.27h86.14l22.58,63.27ZM365.86,232.41l-28.39,12v3.25h103.06v-3.22l-21.5-11.89L338.91,27.19l28.01-11.89v-3.21h-103.06v3.21l28.25,11.89-82.1,205.36-29.58,11.89v3.22h88.34v-3.25l-34.51-12,22.91-63.27h86.12l22.58,63.27ZM1986.43,247.66v-3.29l-29.45-12.17V27.34l29.45-12.01v-3.24h-88.34v3.2l34.35,11.86v161.61h2.05L1796.38,12.09h-70.05v3.2l34.35,12.83v204.28l-24.54,12.01v3.25h83.43v-3.29l-34.35-12.17V66.08h-8.71l143.41,181.58h66.52ZM661.37,247.66v-3.22l-19.2-11.89-64.41-87.74c33.3-9.32,58.92-27.64,58.92-65.56,0-41.47-38.43-67.16-87.74-67.16h-108.41v3.24l29.45,12.01v205.06l-24.54,12.01v3.25h98.15v-3.25l-29.45-12.01V26.82h28.19c27.27-.29,49.01,18.86,49.01,54.89s-22.4,56.14-51.61,57.99h-15.78v2.22l74.34,105.74h63.08ZM211.56,87.39c0-49.01-37.65-75.3-89.26-75.3H13.57v3.21l29.45,11.89v205.36l-29.45,11.89v3.22h107.97v-3.19l-34.35-11.78v-68.46h36.74c47.71,0,87.64-29.54,87.64-77.57M955.83,247.66v-.91l-30.83-12.01-9.82-207.4,30.83-12.01v-3.24h-68.03l-66.21,152.14h-.65L745.25,12.09h-69.15v1.77l26.63,12.01-9.08,207.4-22.46,12.01v2.38h78.52v-3.9l-31.48-11.88,5.46-160.9h.97l71.94,157.04h7.11l71.97-161.95h-.07l5.87,166.42-28.71,11.93v3.23h103.06Z" class="cls-1"></path>
  <path d="M1407.33,399.79v-2.15l-7.36-3.97-23.26-27.42c11.96-3.42,19.1-10.38,19.1-22.06,0-13.71-12.59-22.93-29.24-22.93h-32.86v2.14l9.82,3.97v66.3l-9.82,3.97v2.15h29.45v-2.11l-9.82-3.9v-62.7h10.97c7.79-2.11,15.88,2.42,15.88,15.68,0,9.99-5.58,17.24-15.67,18.67h-6.28v-.9l28.38,35.25h20.7ZM1299.36,399.79v-19.63h-2.7l-6.19,14.72h-25.46v-34.35h13.92l3.71,9.82h2v-24.54h-2l-3.71,9.82h-13.92v-29.45h21.67l6.08,14.72h1.7v-19.63h-49.08v3.61l4.91,3.9v65.1l-4.91,3.9v2.03h53.98ZM1157.04,399.79v-2.15l-7.36-3.97-23.25-27.42c11.94-3.42,19.1-10.38,19.1-22.06,0-13.71-12.6-22.93-29.23-22.93h-37.78v2.14l9.82,3.97v66.3l-9.82,3.97v2.15h34.35v-2.11l-9.82-3.9v-62.7h10.11c7.78-2.11,15.87,2.42,15.87,15.68,0,9.99-5.57,17.24-15.67,18.67h-5.41v-.9l28.38,35.25h20.69ZM1201.21,393.68v-66.3l9.82-3.97v-2.14h-34.35v2.14l9.82,3.97v66.3l-9.82,3.97v2.15h34.35v-2.15l-9.82-3.97ZM1011.61,402.5c-18.62,0-31.24-10.94-31.24-27.66v-47.57l-9.82-3.9v-2.1h34.35v2.1l-9.82,3.9v46.27c0,12.99,5.69,21.52,19.42,21.52,12.46,0,19.84-7.8,19.84-21.42v-46.37l-9.82-3.9v-2.1h29.45v2.1l-9.82,3.9v47.57c0,17.03-11.78,27.66-31.76,27.66M941.11,399.79v-19.63s-2.7,0-2.7,0l-6.19,14.72h-25.46v-34.35h13.93l3.7,9.82h2v-24.54h-2l-3.7,9.82h-13.93v-29.45h21.66l6.09,14.72h1.7v-19.63h-49.08v3.61l4.91,3.9v65.1l-4.91,3.9v2.03h53.98ZM857.68,399.79v-24.54h-2.72l-6.82,19.63h-19.91v-66.11l9.82-3.9v1.3h-34.35v2.1l9.82,3.9v65.1l-9.82,3.9v-1.37h53.98ZM739.9,365.44h18.83l3.71,9.82h2v-24.54h-1.7l-3.9,9.82h-18.95v-29.45h24.42l6.31,9.82h3.63v-19.63h-53.98v2.14l9.82,3.97v66.3l-9.82,3.97v2.15h34.35v-2.03l-14.72-3.9v-28.43Z" class="cls-1"></path>
</svg>