<svg viewBox="0 0 2600 1400" version="1.1" xmlns="http://www.w3.org/2000/svg" id="Layer_1">
  
  <defs>
    <style>
      .st0 {
        fill: #fff;
      }
    </style>
  </defs>
  <g data-name="Layer_1" id="Layer_11">
    <g>
      <g id="patek_label">
        <g>
          <path d="M388.4,953.5h-127l-25.6,67.3h-37.4l112.1-282.9h34.2l109.9,282.9h-39.5l-26.7-67.3h0ZM273.1,922.5h103.5l-52.3-135.6-51.2,135.6Z" class="st0"></path>
          <path d="M86.3,767.7v102.5h63c14.9,0,25.6-3.2,34.2-11.7,9.6-8.5,13.9-23.5,13.9-38.4s-4.3-28.8-13.9-39.5c-9.6-10.7-27.8-11.7-31-11.7h-66.2v-1.1h0ZM50,737.9h97.1c14.9,0,40.6,3.2,58.7,18.1,24.6,19.2,28.8,45.9,28.8,63s-4.3,40.6-21.3,56.6c-22.4,21.3-44.8,24.6-77.9,24.6h-49.1v120.6h-36.3v-282.9h0Z" class="st0"></path>
          <polygon points="1344.8 737.9 1381.1 737.9 1381.1 859.5 1508.2 859.5 1508.2 737.9 1543.4 737.9 1543.4 1020.7 1508.2 1020.7 1508.2 890.5 1381.1 890.5 1381.1 1020.7 1344.8 1020.7 1344.8 737.9" class="st0"></polygon>
          <g>
            <rect height="282.9" width="36.3" y="737.9" x="1597.8" class="st0"></rect>
            <path d="M1614.9,879.8" class="st0"></path>
          </g>
          <polygon points="1686.4 737.9 1722.7 737.9 1722.7 989.8 1845.5 989.8 1845.5 1020.7 1686.4 1020.7 1686.4 737.9" class="st0"></polygon>
          <polygon points="610.4 737.9 610.4 768.8 524 768.8 524 1020.7 488.7 1020.7 488.7 768.8 402.3 768.8 402.3 737.9 610.4 737.9" class="st0"></polygon>
          <polygon points="794 737.9 775.9 768.8 669.1 768.8 669.1 857.4 769.5 857.4 769.5 889.4 669.1 889.4 669.1 989.8 773.7 989.8 791.9 1020.7 632.8 1020.7 632.8 737.9 794 737.9" class="st0"></polygon>
          <polygon points="858.1 870.2 979.8 737.9 1024.6 737.9 931.7 839.3 1026.7 1020.7 986.2 1020.7 907.2 864.9 858.1 917.2 858.1 1020.7 822.8 1020.7 822.8 737.9 858.1 737.9 858.1 870.2" class="st0"></polygon>
          <polygon points="1366.2 1337.8 1434.5 1337.8 1446.2 1359.1 1341.6 1359.1 1341.6 1172.3 1462.3 1172.3 1516.7 1327.1 1572.2 1172.3 1596.8 1172.3 1526.3 1359.1 1503.9 1359.1 1444.1 1193.7 1366.2 1193.7 1366.2 1251.3 1431.3 1251.3 1431.3 1272.7 1366.2 1272.7 1366.2 1337.8" class="st0"></polygon>
          <path d="M1168.7,767.7v102.5h64c14.9,0,25.6-3.2,34.2-11.7,9.6-8.5,13.9-23.5,13.9-38.4s-4.3-28.8-13.9-39.5-27.8-11.7-31-11.7h-67.3v-1.1h.1ZM1133.5,737.9h97.1c14.9,0,40.6,3.2,58.7,18.1,24.6,19.2,28.8,45.9,28.8,63s-4.3,40.6-21.3,56.6c-22.4,21.3-44.8,24.6-77.9,24.6h-50.2v120.6h-36.3v-282.9h1.1Z" class="st0"></path>
          <g>
            <rect height="282.9" width="36.3" y="737.9" x="1869" class="st0"></rect>
            <path d="M1886,879.8" class="st0"></path>
          </g>
          <path d="M1993.9,767.7v102.5h64c14.9,0,25.6-3.2,34.2-11.7,9.6-8.5,13.9-23.5,13.9-38.4s-4.3-28.8-13.9-39.5c-9.6-10.7-27.8-11.7-31-11.7h-67.3v-1.1h.1ZM1957.6,737.9h97.1c14.9,0,40.6,3.2,58.7,18.1,24.6,19.2,28.8,45.9,28.8,63s-4.3,40.6-21.3,56.6c-22.4,21.3-44.8,24.6-77.9,24.6h-50.2v120.6h-36.3l1.1-282.9h0Z" class="st0"></path>
          <path d="M2209.5,767.7v102.5h64c14.9,0,25.6-3.2,34.2-11.7,9.6-8.5,13.9-23.5,13.9-38.4s-4.3-28.8-13.9-39.5c-9.6-10.7-27.8-11.7-31-11.7h-67.3v-1.1h.1ZM2173.2,737.9h97.1c14.9,0,40.6,3.2,58.7,18.1,24.6,19.2,28.8,45.9,28.8,63s-4.3,40.6-21.3,56.6c-22.4,21.3-44.8,24.6-77.9,24.6h-50.2v120.6h-36.3l1.1-282.9h0Z" class="st0"></path>
          <polygon points="2550 737.9 2531.9 768.8 2425.1 768.8 2425.1 857.4 2524.4 857.4 2524.4 889.4 2425.1 889.4 2425.1 989.8 2529.7 989.8 2546.8 1020.7 2388.8 1020.7 2388.8 737.9 2550 737.9" class="st0"></polygon>
          <path d="M1022.5,1264.1v67.3c-14.9,14.9-34.2,31-72.6,31s-82.2-36.3-82.2-93.9,36.3-98.2,87.5-98.2,60.8,25.6,68.3,36.3l-17.1,16s-17.1-32-51.2-32-60.8,31-60.8,79,28.8,73.7,59.8,73.7,44.8-18.1,45.9-19.2v-38.4h-56.6v-20.3h79v-1.3Z" class="st0"></path>
          <polygon points="1160.2 1172.3 1148.4 1193.7 1078 1193.7 1078 1251.3 1144.2 1251.3 1144.2 1272.7 1078 1272.7 1078 1337.8 1146.3 1337.8 1158 1359.1 1054.5 1359.1 1054.5 1172.3 1160.2 1172.3" class="st0"></polygon>
          <polygon points="1287.2 1172.3 1309.6 1172.3 1309.6 1359.1 1286.1 1359.1 1201.8 1206.5 1201.8 1359.1 1179.4 1359.1 1179.4 1172.3 1209.3 1172.3 1287.2 1313.2 1287.2 1172.3" class="st0"></polygon>
          <polygon points="1717.4 1172.3 1706.7 1193.7 1636.3 1193.7 1636.3 1251.3 1701.4 1251.3 1701.4 1272.7 1636.3 1272.7 1636.3 1337.8 1704.6 1337.8 1716.3 1359.1 1612.8 1359.1 1612.8 1172.3 1717.4 1172.3" class="st0"></polygon>
        </g>
      </g>
      <path d="M1414.3,304.6c19,0,38-11.6,38-26.4s-4.2-15.8-20-15.8-36.9,21.1-54.9,21.1-17.9-12.7-17.9-12.7c9.5,0,12.7,0,24.3-6.3,10.6-5.3,25.3-21.1,35.9-31.7,9.5-10.6,25.3-24.3,44.3-24.3s38,11.6,38,33.8-23.2,38-23.2,48.5,1.1,7.4,7.4,7.4c9.5,0,27.4-13.7,45.4-13.7s45.4,27.4,45.4,27.4c0,0-21.1,27.4-45.4,27.4s-35.9-13.7-45.4-13.7-7.4,4.2-7.4,7.4c0,10.6,23.2,20,23.2,48.5s-19,33.8-38,33.8-34.8-13.7-44.3-24.3-24.3-26.4-35.9-31.7c-11.6-5.3-14.8-6.3-24.3-6.3,0,0,2.1-12.7,17.9-12.7s34.8,21.1,54.9,21.1,20-10.6,20-15.8c0-15.8-19-26.4-38-26.4h-105.5v105.5c0,19,11.6,38,26.4,38s15.8-4.2,15.8-20-21.1-36.9-21.1-54.9,12.7-17.9,12.7-17.9c0,9.5,0,12.7,6.3,24.3,5.3,10.6,21.1,25.3,31.7,35.9,10.6,9.5,24.3,25.3,24.3,44.3s-11.6,38-33.8,38-38-23.2-48.5-23.2-7.4,1.1-7.4,7.4c0,9.5,13.7,27.4,13.7,45.4s-27.4,45.4-27.4,45.4c0,0-27.4-21.1-27.4-45.4s13.7-35.9,13.7-45.4-4.2-7.4-7.4-7.4c-10.6,0-20,23.2-48.5,23.2s-33.8-19-33.8-38,13.7-34.8,24.3-44.3,26.4-24.3,31.7-35.9c5.3-11.6,6.3-14.8,6.3-24.3,0,0,12.7,2.1,12.7,17.9s-21.1,34.8-21.1,54.9,10.6,20,15.8,20c15.8,0,26.4-19,26.4-38v-105.5h-105.5c-19,0-38,11.6-38,26.4s4.2,15.8,20,15.8,36.9-21.1,54.9-21.1,17.9,12.7,17.9,12.7c-9.5,0-12.7,0-24.3,6.3-10.6,5.3-25.3,21.1-35.9,31.7-9.5,10.6-25.3,24.3-44.3,24.3s-38-11.6-38-33.8,23.2-38,23.2-48.5-1.1-7.4-7.4-7.4c-9.5,0-27.4,13.7-45.4,13.7-24.3,1.1-45.4-26.4-45.4-26.4,0,0,21.1-27.4,45.4-27.4s35.9,13.7,45.4,13.7,7.4-4.2,7.4-7.4c0-10.6-23.2-20-23.2-48.5s19-33.8,38-33.8,34.8,13.7,44.3,24.3,24.3,26.4,35.9,31.7c11.6,5.3,14.8,6.3,24.3,6.3,0,0-2.1,12.7-17.9,12.7s-34.8-21.1-54.9-21.1-20,10.6-20,15.8c0,15.8,19,26.4,38,26.4h105.5v-105.5c0-19-11.6-38-26.4-38s-15.8,4.2-15.8,20,21.1,36.9,21.1,54.9-12.7,17.9-12.7,17.9c0-9.5,0-12.7-6.3-24.3-5.3-10.6-21.1-25.3-31.7-35.9-10.6-9.5-24.3-25.3-24.3-44.3s11.6-38,33.8-38,38,23.2,48.5,23.2,7.4-1.1,7.4-7.4c0-9.5-13.7-27.4-13.7-45.4s27.4-45.4,27.4-45.4c0,0,27.4,21.1,27.4,45.4s-13.7,35.9-13.7,45.4,4.2,7.4,7.4,7.4c10.6,0,20-23.2,48.5-23.2s33.8,19,33.8,38-13.7,34.8-24.3,44.3-26.4,24.3-31.7,35.9c-5.3,11.6-6.3,14.8-6.3,24.3,0,0-12.7-2.1-12.7-17.9s21.1-34.8,21.1-54.9-10.6-20-15.8-20c-15.8,0-26.4,19-26.4,38v105.5h105.5v-1.1h0Z" class="st0"></path>
    </g>
  </g>
</svg>