<svg viewBox="0 0 2009 323" version="1.1" xmlns="http://www.w3.org/2000/svg" id="Layer_1">
  
  <defs>
    <style>
      .st0 {
        fill: #fff;
      }
    </style>
  </defs>
  <g data-name="Layer_1" id="Layer_11">
    <g>
      <path d="M699.6,285.7h26.2v20.4c-7.8,2.9-17.5,4.9-27.2,4.9-23.3,0-35.9-15.5-35.9-33s12.6-33,35-33,23.3,3.9,26.2,13.6h12.6c-2.9-16.5-16.5-23.3-39.8-23.3-33,0-45.6,22.3-45.6,42.7s14.6,42.7,47.6,42.7,25.2-1.9,38.8-7.8v-35.9h-36.9l-1,8.7h0Z" class="st0"></path>
      <polygon points="806.4 281.8 851.1 281.8 851.1 272.1 806.4 272.1 806.4 246.8 855 246.8 855 238.1 794.8 238.1 794.8 317.7 856 317.7 856 309 806.4 309 806.4 281.8" class="st0"></polygon>
      <polygon points="978.3 306.1 978.3 306.1 928.8 238.1 913.2 238.1 913.2 317.7 924.9 317.7 924.9 249.7 924.9 249.7 974.4 317.7 989.9 317.7 989.9 238.1 978.3 238.1 978.3 306.1" class="st0"></polygon>
      <polygon points="1061.8 281.8 1107.4 281.8 1107.4 272.1 1061.8 272.1 1061.8 246.8 1110.3 246.8 1110.3 238.1 1050.1 238.1 1050.1 317.7 1112.3 317.7 1112.3 309 1061.8 309 1061.8 281.8" class="st0"></polygon>
      <polygon points="1199.6 308 1168.6 238.1 1156 238.1 1192.8 317.7 1206.4 317.7 1243.3 238.1 1231.7 238.1 1199.6 308" class="st0"></polygon>
      <polygon points="1299.6 281.8 1344.3 281.8 1344.3 272.1 1299.6 272.1 1299.6 246.8 1348.2 246.8 1348.2 238.1 1288 238.1 1288 317.7 1349.2 317.7 1349.2 309 1299.6 309 1299.6 281.8" class="st0"></polygon>
      <path d="M159.8,154.6h-41.7l-38.8-54.4h-40.8v54.4H4.5V7h85.4c15.5,0,27.2,1,36.9,4.9,15.5,5.8,27.2,18.4,27.2,42.7s-15.5,39.8-35.9,44.7l41.7,55.3ZM38.5,70.1h51.5c10.7,0,17.5,0,22.3-1.9,5.8-2.9,8.7-7.8,8.7-14.6s-2.9-11.7-9.7-13.6c-4.9-1.9-10.7-1.9-22.3-1.9h-50.5v32Z" class="st0"></path>
      <path d="M350.1,154.6h-36.9l-15.5-32h-76.7l-15.5,32h-36.9L241.4,6.1h36.9l71.8,148.5h0ZM284.1,91.5l-25.2-53.4-24.3,53.4h49.5Z" class="st0"></path>
      <path d="M421,154.6h-34v-58.3L315.2,7h43.7l44.7,58.3,44.7-58.3h43.7l-71.8,89.3v58.3h1-.2Z" class="st0"></path>
      <path d="M583.1,154.6l-40.8-98.1v98.1h-34V7h47.6l40.8,99,41.7-99h47.6v148.5h-34V56.5l-39.8,98.1h-29.1Z" class="st0"></path>
      <path d="M802.6,159.5c-67,0-89.3-43.7-89.3-78.6S735.6,2.3,802.6,2.3s89.3,43.7,89.3,78.6-22.3,78.6-89.3,78.6ZM802.6,33.2c-21.4,0-56.3,6.8-56.3,47.6s35,47.6,56.3,47.6,56.3-6.8,56.3-47.6-35-47.6-56.3-47.6Z" class="st0"></path>
      <path d="M1044.3,105.1V7h34v148.5h-34l-91.3-99v98.1h-34V7h34l91.3,98.1Z" class="st0"></path>
      <path d="M1270.5,80.8c0,33-13.6,56.3-40.8,67-11.7,4.9-25.2,6.8-46.6,6.8h-69.9V7h69.9c21.4,0,35,1.9,46.6,6.8,27.2,10.7,40.8,34,40.8,67ZM1236.5,80.8c0-21.4-7.8-33-22.3-38.8-7.8-2.9-18.4-3.9-35-3.9h-32v86.4h32c16.5,0,26.2-1,35-3.9,15.5-6.8,22.3-18.4,22.3-39.8Z" class="st0"></path>
      <path d="M1544.3,109.9l36.9-103.9h35.9l-52.4,148.5h-38.8l-39.8-108.7-39.8,108.7h-38.8l-53.4-147.6h35.9l36.9,103.9,37.9-103.9h40.8l38.8,102.9h0Z" class="st0"></path>
      <path d="M1666.6,124.5h101.9v31.1h-135.9V7h134v31.1h-100v25.2h87.4v31.1h-87.4v30.1Z" class="st0"></path>
      <path d="M1798.7,7h34v148.5h-34V7Z" class="st0"></path>
      <path d="M2004.5,124.5v31.1h-135.9V7h34v117.5h101.9Z" class="st0"></path>
    </g>
  </g>
</svg>