<svg viewBox="0 0 3020 1330" version="1.1" xmlns="http://www.w3.org/2000/svg" id="Layer_1">
  
  <defs>
    <style>
      .st0 {
        fill: #fff;
      }
    </style>
  </defs>
  <path d="M1265.8,428.5l49.3,48.8,62.9-63h263.5l63.2,63,49.5-48.8-71.2-70.4V125.4l71.2-70.4-49-48.8-63.8,62.7h-263.5l-62.9-62.7-49.3,48.8,70.6,70.4v232.7l-70.6,70.4h.1ZM1405.9,138.2h207.7v206.9h-207.7v-206.9h0Z" class="st0"></path>
  <path d="M198.2,912.2c14.7-6.4,27-17.2,35.3-30.9,8.2-13.8,12-29.8,10.7-45.7.5-12.5-1.7-25-6.3-36.6-4.6-11.6-11.7-22.1-20.7-30.8-19.5-17.3-44.9-26.3-70.8-25.3H10v288.5h44.5v-105.5h83.3l65.2,105.5h52.8l-72.9-113.5c5-1.5,10.1-3.6,15.4-5.6h-.1ZM200,835.5c.3,8-1.4,16-5,23.2-5.9,8.6-14.1,15.4-23.6,19.6-9.5,4.2-20,5.8-30.3,4.5H54.5v-96.6h88.9c15.2-.8,30.1,4,42.1,13.4,5,4.5,8.8,10.1,11.3,16.3s3.6,12.9,3.2,19.6h0Z" class="st0"></path>
  <path d="M385.9,1031.4h212.5v-43.7h-168.1v-78.7h150v-44h-150v-78.5h168.1v-43.4h-212.5v288.3Z" class="st0"></path>
  <path d="M917.4,891.7c-9.8-6.2-20.4-11.2-31.4-14.9-11.4-4-23-7.3-34.7-10.1l-34.1-8.6c-10.1-2.4-20-5.5-29.6-9.2-7.1-2.7-13.5-6.7-19-11.9-1.8-1.6-3.2-3.5-4.2-5.6s-1.6-4.5-1.7-6.9c0-5.2.8-10.4,2.4-15.5,1.7-4.7,4.6-8.9,8.3-12.2,5.9-4.5,12.5-7.9,19.6-10.1,10.6-3.2,21.6-4.7,32.6-4.5,11-.3,22,1,32.6,3.9,9.8,1.6,18.8,6.3,25.8,13.4,6.9,7.1,11.4,16.3,12.7,26.1v5.9h44.8v-7.1c-.3-11.5-3.1-22.8-8.2-33-5.1-10.3-12.4-19.3-21.4-26.4-23.9-18.5-53.7-27.7-83.9-25.9-28.8-2-57.4,6.1-80.9,22.9-8.8,7.2-15.8,16.2-20.6,26.5s-7.2,21.5-7,32.9c-.4,7.7.8,15.4,3.4,22.7,2.6,7.3,6.7,13.9,12,19.5,10.9,11,24,19.5,38.5,25,14.8,6,30.1,10.8,45.7,14.3,15.7,3.6,29.6,7.4,43.9,11.6,11.5,3.1,22.4,8,32.3,14.6,3.5,2.2,6.3,5.3,8.3,8.9,1.9,3.7,2.9,7.7,2.7,11.9,0,10.1,0,41.6-69.4,41.6-19,.8-37.9-3.3-54.8-11.9-6.9-3.7-12.7-9.1-16.8-15.7s-6.4-14.2-6.6-22v-6.5h-47.1v7.7c.6,12.6,3.7,25,9.3,36.4s13.4,21.4,23,29.6c26.5,18.6,58.5,27.6,90.7,25.6,29.2,1.6,58.1-6,82.7-21.7,9.9-7.4,17.8-17.2,23-28.5s7.5-23.6,6.7-36c.5-11.2-2-22.3-7.2-32.3-5.1-10-12.8-18.4-22.2-24.5h-.2Z" class="st0"></path>
  <path d="M1088.2,1031.4h212.5v-43.7h-168.4v-78.7h150.3v-44h-150.3v-78.5h168.4v-43.4h-212.5v288.3Z" class="st0"></path>
  <path d="M1623.8,912.2c14.8-6.3,27.2-17.1,35.5-30.8,8.3-13.8,12.1-29.8,10.7-45.8.5-12.5-1.7-25-6.3-36.6-4.6-11.6-11.7-22.1-20.7-30.8-19.1-16.9-43.9-25.9-69.4-25.3h-136.4v288.5h44.2v-105.5h83.3l65.5,105.5h52.5l-72.6-113.5c4.6-1.7,9.2-3.5,13.6-5.6h.1ZM1480.1,786.2h88.9c15.2-.8,30.2,3.9,42.1,13.4,7.8,7.5,13,17.4,14.8,28.1,1.8,10.7.2,21.7-4.7,31.4-5.9,8.6-14,15.4-23.4,19.6-9.5,4.2-19.9,5.8-30.2,4.5h-87.5v-96.9h0Z" class="st0"></path>
  <path d="M1909,970.4l-88.9-227.3h-48l114.7,288.3h44.5l115-288.3h-48.3l-88.9,227.3h-.1Z" class="st0"></path>
  <path d="M2282.2,739.6c-19.5-.6-38.8,3-56.8,10.5s-34.2,18.7-47.5,32.9c-25.4,28.7-39.4,65.7-39.4,104s14,75.3,39.4,104c27.7,27.2,65,42.5,103.7,42.5s76.1-15.2,103.8-42.5c25.4-28.7,39.4-65.7,39.4-104s-14-75.3-39.4-104c-13.2-14.1-29.2-25.2-47-32.7s-36.9-11.1-56.2-10.7ZM2282.2,990.7c-13.6.6-27.2-1.8-39.8-6.9s-24-12.9-33.4-22.8c-17.5-20.8-27.1-47.1-27.1-74.3s9.6-53.5,27.1-74.3c19.6-19,45.8-29.7,73.1-29.7s53.5,10.6,73.1,29.7c17.5,20.8,27.1,47.1,27.1,74.3s-9.6,53.5-27.1,74.3c-9.3,9.9-20.7,17.7-33.2,22.8-12.6,5.1-26.1,7.5-39.7,6.9h-.1Z" class="st0"></path>
  <path d="M2609.5,743.1h-44.2v288.5h44.2v-288.5Z" class="st0"></path>
  <path d="M2937.4,917.9c5.1-1.6,10.2-3.5,15.1-5.6,14.8-6.3,27.2-17.1,35.5-30.8,8.3-13.8,12.1-29.8,10.7-45.8.5-12.5-1.7-25-6.3-36.6s-11.7-22.1-20.7-30.8c-19.5-17.2-44.9-26.3-70.8-25.3h-136.4v288.5h44.2v-105.5h83.3l65.5,105.5h52.5l-72.6-113.5h0ZM2808.7,786.2h88.9c15.2-.8,30.2,3.9,42.1,13.4,7.8,7.5,13,17.4,14.8,28.1,1.8,10.7.2,21.7-4.7,31.4-5.9,8.6-14,15.4-23.4,19.6-9.5,4.2-19.9,5.8-30.2,4.5h-87.2l-.3-96.9h0Z" class="st0"></path>
  <path d="M862.3,1297.9c7.6,7.1,17.5,11.2,27.9,11.6,2.3.3,4.7,0,6.9-.6,2.2-.7,4.3-1.8,6.1-3.3s3.2-3.4,4.3-5.5c1-2.1,1.6-4.4,1.7-6.7,0-23.8-53.1-18.4-53.1-52.3.3-4.3,1.5-8.5,3.5-12.3s4.7-7.2,7.9-10c3.3-2.8,7.1-4.8,11.2-6.1,4.1-1.3,8.4-1.7,12.7-1.3,10.9,0,21.4,3.9,29.6,11l-7.1,12.5c-6.7-5.7-15.2-8.9-24-9.2-2.3-.3-4.7,0-7,.5s-4.4,1.7-6.2,3.2c-1.8,1.5-3.4,3.3-4.5,5.4s-1.9,4.3-2.1,6.7c0,22.9,53.1,16.6,53.1,52.3-.2,4.3-1.3,8.5-3.2,12.3-1.9,3.8-4.5,7.3-7.8,10-3.2,2.8-7,4.9-11.1,6.1-4.1,1.3-8.4,1.7-12.6,1.2-13.5.2-26.4-5-36.2-14.3l10.1-11.3h-.1Z" class="st0"></path>
  <path d="M1052.3,1212.6l21.3,80.2c0,5.9,2.4,11.6,2.4,11.6.3-3.9.9-7.8,1.8-11.6l21.6-80.2h15.7l-29.6,109.4h-17.8l-19-71c-1.8-6.8-3.3-15.5-3.3-15.5-.7,5.2-1.8,10.4-3.3,15.5l-18.7,71h-17.8l-27.9-109.4h15.7l19.3,80.2c.9,3.8,1.6,7.7,2.1,11.6h0s0-5.6,2.4-11.6l22.8-80.2h12.3Z" class="st0"></path>
  <path d="M1174.7,1212.6h15.4v109.4h-15.4v-109.4Z" class="st0"></path>
  <path d="M1262.5,1297.9c7.5,7,17.3,11.2,27.6,11.6,10.4,0,19-5.6,19-16,0-23.8-52.8-18.4-52.8-52.3.3-4.3,1.5-8.5,3.4-12.3s4.7-7.3,7.9-10c3.3-2.8,7.1-4.9,11.2-6.1,4.1-1.3,8.4-1.7,12.7-1.2,10.9,0,21.4,3.8,29.6,11l-7.1,12.5c-6.6-5.7-15-8.9-23.7-9.2-11.9,0-19.9,7.1-19.9,15.7,0,22.9,52.8,16.6,52.8,52.3-.2,4.3-1.3,8.5-3.2,12.3-1.9,3.8-4.5,7.3-7.8,10-3.2,2.8-7,4.9-11.1,6.1-4.1,1.3-8.4,1.7-12.6,1.2-13.4.2-26.4-5-36.2-14.3l10.1-11.3h0Z" class="st0"></path>
  <path d="M1388.8,1297.9c7.6,7.1,17.5,11.2,27.9,11.6,2.3.3,4.6,0,6.9-.6,2.2-.7,4.3-1.8,6-3.3,1.8-1.5,3.2-3.4,4.2-5.5s1.5-4.4,1.6-6.7c0-23.8-52.8-18.4-52.8-52.3.3-4.3,1.5-8.5,3.4-12.3s4.7-7.3,7.9-10c3.3-2.8,7.1-4.9,11.2-6.1,4.1-1.3,8.4-1.7,12.7-1.2,10.9,0,21.4,3.8,29.6,11l-6.8,12.5c-6.7-5.7-15.2-8.9-24-9.2-2.3-.3-4.7,0-7,.5s-4.4,1.7-6.2,3.2c-1.8,1.5-3.4,3.3-4.5,5.3-1.1,2.1-1.9,4.3-2.1,6.7,0,22.9,52.8,16.6,52.8,52.3-.2,4.3-1.2,8.4-3.1,12.3-1.9,3.8-4.5,7.3-7.7,10-3.2,2.8-7,4.9-11,6.2-4.1,1.3-8.3,1.7-12.6,1.2-6.7,0-13.3-1.1-19.5-3.5s-11.9-6.1-16.7-10.7l9.8-11.3h0Z" class="st0"></path>
  <path d="M1603.4,1212.6h16l25.2,59.4c2.4,6.2,5.3,14.9,5.3,14.9,0,0,3-8.6,5.3-14.9l25.2-59.4h16l8.9,109.4h-13l-5.6-68.9v-16s-3.3,10.1-5.9,16l-21.9,49.3h-13.6l-21.6-49.3c-2.4-5.9-5.6-16.3-5.6-16.3v16.3l-5.3,68.9h-15.4l6.2-109.4h-.2Z" class="st0"></path>
  <path d="M1831.3,1290.5h-41.2l-10.7,31.5h-16l39.4-109.4h16l39.1,109.4h-15.7l-11-31.5h0ZM1810.9,1227.8s-2.4,9.8-4.2,15.5l-12.2,34.8h32.9l-11.8-34.8c-2.1-5.6-4.4-15.5-4.4-15.5h-.3Z" class="st0"></path>
  <path d="M1916.7,1212.6h36.2c14.5,0,28.3,5.8,38.6,16,10.2,10.3,16,24.2,16,38.7s-5.7,28.4-16,38.7c-10.2,10.3-24.1,16-38.6,16h-36.2v-109.4h0ZM1951.7,1308.6c10.9,0,21.4-4.4,29.1-12.1,7.7-7.7,12.1-18.3,12.1-29.2s-4.3-21.5-12.1-29.2c-7.7-7.7-18.2-12.1-29.1-12.1h-19.9v82.6h19.9Z" class="st0"></path>
  <path d="M2073.5,1212.6h63.4v13.4h-48v34.2h39.1v13.4h-39.1v35.1h50.7v13.4h-66.1v-109.4h0Z" class="st0"></path>
</svg>