<svg viewBox="0 0 2100 1000" version="1.1" xmlns="http://www.w3.org/2000/svg" id="Layer_1">
  
  <defs>
    <style>
      .st0 {
        fill: #fff;
      }
    </style>
  </defs>
  <g>
    <polygon points="54.3 544.7 172.3 544.7 172.3 785.4 267.9 785.4 267.9 544.7 385.9 544.7 385.9 453.8 54.3 453.8 54.3 544.7" class="st0"></polygon>
    <rect height="331.6" width="95.7" y="453.8" x="431.1" class="st0"></rect>
    <path d="M786.6,584l-79.6-12.8c-12.3-1.9-25.1-6.2-25.1-19.4s18-24.6,44.5-24.6,55.9,10.9,64.9,33.6l96.6-32.2c-23.2-57.8-94.3-79.6-155.4-79.6s-153,31.7-153,106.6,52.1,86.7,114.1,96.6l73.9,11.8c23.2,3.8,33.2,13.7,33.2,24.6,0,16.6-23.2,23.2-52.1,23.2-43.1,0-68.7-15.2-81.5-45l-96.2,32.2c27,61.1,96.6,90.9,172.9,90.9s159.1-29.8,159.1-109.9-32.2-82.4-116.5-96.1h.2Z" class="st0"></path>
    <path d="M1152.2,584l-79.6-12.8c-12.3-1.9-25.1-6.2-25.1-19.4s18-24.6,44.5-24.6,55.9,10.9,64.9,33.6l96.6-32.2c-23.2-57.8-94.3-79.6-155.4-79.6s-153,31.7-153,106.6,52.1,86.7,114.1,96.6l73.9,11.8c23.2,3.8,33.2,13.7,33.2,24.6,0,16.6-23.2,23.2-52.1,23.2-43.1,0-68.7-15.2-81.5-45l-96.2,32.2c27,61.1,96.6,90.9,172.9,90.9s159.1-29.8,159.1-109.9-32.2-82.4-116.5-96.1h.2Z" class="st0"></path>
    <path d="M1496.4,449c-118.4,0-195.2,70.1-195.2,170.5s76.7,170.5,195.2,170.5,195.2-70.1,195.2-170.5-76.7-170.5-195.2-170.5ZM1496.4,705.8c-61.6,0-94.3-39.3-94.3-86.2s32.7-86.2,94.3-86.2,94.3,39.3,94.3,86.2-32.7,86.2-94.3,86.2Z" class="st0"></path>
    <polygon points="1714.1 453.8 1714.1 544.7 1832.1 544.7 1832.1 785.4 1927.7 785.4 1927.7 544.7 2045.7 544.7 2045.7 453.8 1714.1 453.8" class="st0"></polygon>
  </g>
  <path d="M1072.6,31.8v331.6h331.6V31.8h-331.6ZM1359,232.2h-85.9v85.9h-69.4v-85.9h-85.9v-69.3h85.9v-85.9h69.4v85.9h85.9v69.3Z" class="st0"></path>
  <path d="M695.8,31.8v331.6h331.6V31.8h-331.6ZM982.2,143.3h-85.9v174.8h-69.4v-174.8h-85.9v-66.3h241.2v66.3Z" class="st0"></path>
  <g>
    <path d="M85,968.2c-19.5,0-30.1-10.5-35-27.1l11.2-3.8c4.6,12.6,10,19.5,22.4,20.2,10.9.5,20.3-3.9,20.3-15s-6.5-12.9-13.7-14.9l-15.6-4.3c-12.7-3.5-22-9.2-22-22.9s13.8-26,30.3-26,27.1,8.5,30.6,22.9l-10.9,3.6c-3.3-10.7-10.8-15.5-19.4-15.9-9.7-.5-18.1,4.6-18.1,14.7s3.3,9.4,12.2,11.7l15.9,4.2c17.8,4.7,23.2,14.3,23.2,25.5,0,16.9-12.3,26.9-31.3,26.9v.2Z" class="st0"></path>
    <path d="M194.2,895.8l-19.5,71.1h-12.2l-30.6-91.1h13.3l23.4,72.4,18.9-72.4h14.2l18.6,72.4,23.4-72.4h13.3l-30.6,91.1h-12.9l-19.4-71.1h.1Z" class="st0"></path>
    <path d="M294.2,875.8v91.1h-12.2v-91.1h12.2Z" class="st0"></path>
    <path d="M357.3,968.2c-19.5,0-30.1-10.5-35-27.1l11.2-3.8c4.6,12.6,10,19.5,22.4,20.2,10.9.5,20.3-3.9,20.3-15s-6.5-12.9-13.7-14.9l-15.6-4.3c-12.7-3.5-22-9.2-22-22.9s13.8-26,30.3-26,27.1,8.5,30.6,22.9l-10.9,3.6c-3.3-10.7-10.8-15.5-19.4-15.9-9.7-.5-18.1,4.6-18.1,14.7s3.3,9.4,12.2,11.7l15.9,4.2c17.8,4.7,23.2,14.3,23.2,25.5,0,16.9-12.3,26.9-31.3,26.9v.2Z" class="st0"></path>
    <path d="M445.1,968.2c-19.5,0-30.1-10.5-35-27.1l11.2-3.8c4.6,12.6,10,19.5,22.4,20.2,10.9.5,20.3-3.9,20.3-15s-6.5-12.9-13.7-14.9l-15.6-4.3c-12.7-3.5-22-9.2-22-22.9s13.8-26,30.3-26,27.1,8.5,30.6,22.9l-10.9,3.6c-3.3-10.7-10.8-15.5-19.4-15.9-9.7-.5-18.1,4.6-18.1,14.7s3.3,9.4,12.2,11.7l15.9,4.2c17.8,4.7,23.2,14.3,23.2,25.5,0,16.9-12.3,26.9-31.3,26.9v.2Z" class="st0"></path>
    <path d="M599.4,895.8l-19.5,71.1h-12.2l-30.6-91.1h13.3l23.4,72.4,18.9-72.4h14.2l18.6,72.4,23.4-72.4h13.3l-30.6,91.1h-12.9l-19.4-71.1h0Z" class="st0"></path>
    <path d="M732.5,966.9l-7.8-24.5h-34.4l-7.8,24.5h-13l30.6-91.1h14.9l30.6,91.1h-13.1ZM721.5,931.9l-13.8-43.5-13.9,43.5h27.7Z" class="st0"></path>
    <path d="M824.1,886.4h-29.6v80.5h-12.2v-80.5h-29.8v-10.7h71.6v10.7Z" class="st0"></path>
    <path d="M885,968.2c-25.7,0-42.1-19.1-42.1-47s16.4-46.8,42.1-46.8,33.1,10.8,37.5,26.7l-11.6,3.9c-3.6-12.2-11.9-19.9-25.9-19.9s-29.6,16.4-29.6,36.2,9.7,36.2,29.8,36.2,21.9-7.7,25.7-19.9l11.6,3.9c-4.7,16-18.1,26.7-37.5,26.7h0Z" class="st0"></path>
    <path d="M963.3,875.8v38.9h47.6v-38.9h12.2v91.1h-12.2v-41.5h-47.6v41.5h-12.2v-91.1h12.2Z" class="st0"></path>
    <path d="M1118.1,875.8v10.7h-47.8v28.2h45.8v10.7h-45.8v30.9h47.8v10.7h-60v-91.1h60Z" class="st0"></path>
    <path d="M1176.2,968.2c-19.5,0-30.1-10.5-35-27.1l11.2-3.8c4.6,12.6,10,19.5,22.4,20.2,10.9.5,20.3-3.9,20.3-15s-6.5-12.9-13.7-14.9l-15.6-4.3c-12.7-3.5-22-9.2-22-22.9s13.8-26,30.3-26,27.1,8.5,30.6,22.9l-10.9,3.6c-3.3-10.7-10.8-15.5-19.4-15.9-9.7-.5-18.1,4.6-18.1,14.7s3.3,9.4,12.2,11.7l15.9,4.2c17.8,4.7,23.2,14.3,23.2,25.5,0,16.9-12.3,26.9-31.3,26.9v.2Z" class="st0"></path>
    <path d="M1307.5,968.2c-19.5,0-30.1-10.5-35-27.1l11.2-3.8c4.6,12.6,10,19.5,22.4,20.2,10.9.5,20.3-3.9,20.3-15s-6.5-12.9-13.7-14.9l-15.6-4.3c-12.7-3.5-22-9.2-22-22.9s13.8-26,30.3-26,27.1,8.5,30.6,22.9l-10.9,3.6c-3.3-10.7-10.8-15.5-19.4-15.9-9.7-.5-18.1,4.6-18.1,14.7s3.3,9.4,12.2,11.7l15.9,4.2c17.8,4.7,23.2,14.3,23.2,25.5,0,16.9-12.3,26.9-31.3,26.9v.2Z" class="st0"></path>
    <path d="M1379.2,875.8v91.1h-12.2v-91.1h12.2Z" class="st0"></path>
    <path d="M1426.6,875.8l48.7,71.4v-71.4h12.2v91.1h-12.5l-48.7-71.5v71.5h-12.2v-91.1h12.5Z" class="st0"></path>
    <path d="M1558.9,968.2c-25.7,0-42.1-19.1-42.1-47s16.4-46.8,42.1-46.8,33.1,10.8,37.5,26.7l-11.6,3.9c-3.6-12.2-11.9-19.9-25.9-19.9s-29.6,16.4-29.6,36.2,9.7,36.2,29.8,36.2,21.9-7.7,25.7-19.9l11.6,3.9c-4.7,16-18.1,26.7-37.5,26.7h0Z" class="st0"></path>
    <path d="M1685,875.8v10.7h-47.8v28.2h45.8v10.7h-45.8v30.9h47.8v10.7h-60v-91.1h60Z" class="st0"></path>
    <path d="M1767.3,887.9l-16.4,5.2v-11.1l18.6-6.3h10v91.1h-12.2v-79h0Z" class="st0"></path>
    <path d="M1830,919c-10.2-2.6-16.9-8.9-16.9-20.5s11.6-24.1,29-24.1,29.2,9.5,29.2,24.1-6.9,17.8-17.1,20.5c11.5,2.6,19.3,10.4,19.3,23.7s-11.6,25.5-31.4,25.5-31.4-10.4-31.4-25.5,7.8-21.1,19.3-23.7ZM1861,941.3c0-11.3-7.7-16.1-18.9-16.3-11.1,0-18.9,5-18.9,16.3s6.8,16.1,18.9,16.3c12.1,0,18.9-6.1,18.9-16.3ZM1842.2,914.2c11.1-.3,16.5-6.6,16.5-15s-4.2-13.9-16.5-14.1c-12.4,0-16.5,7-16.5,14.1s5.6,14.7,16.5,15Z" class="st0"></path>
    <path d="M1963.2,936.7c0,17.7-12,31.5-32.1,31.5s-29.3-11.7-32.8-24.5l11.6-3.9c3,10.8,9.2,17.7,21,17.7s19.9-8.2,19.9-20.7-7.2-19.5-19.5-19.5-18.2,10.3-18.2,10.3h-12.6l17.3-51.8h41.8v10.7h-32.9l-8.7,24.5c3.8-2.6,8.8-4.3,15.8-4.3,19.9,0,29.7,14.1,29.7,30.1h-.3Z" class="st0"></path>
    <path d="M2047.7,898.3c0,12-8.3,18.1-19.1,20.7,10.3,2.1,21.5,9,21.5,23.3s-11.7,25.9-30.3,25.9-27.6-8.2-31.9-22.7l11.3-3.8c3.3,9.1,9.1,15.8,19.8,15.8s18.6-5.7,18.6-16.1-9.9-16.4-21.2-16.4h-6.1v-10.8h5.7c11.3,0,19.3-6.4,19.3-15.2s-5.1-13.8-16-13.8-16.4,8-18.6,15.2l-11.5-3.8c3-13.5,13.8-22.1,30.5-22.1s28.1,9.5,28.1,23.8h-.1Z" class="st0"></path>
  </g>
</svg>