<svg viewBox="0 0 3004 575" version="1.1" xmlns="http://www.w3.org/2000/svg" id="Layer_1">
  
  <defs>
    <style>
      .st0 {
        fill: #fff;
      }
    </style>
  </defs>
  <g id="Layer_2">
    <g id="un_svg_map">
      <g id="un_logo">
        <path d="M2993.5,233.2c0-9.9,2.8-18.4,8.5-25.4h-69.2c11.3,11.3,8.5,21.2,8.5,35.3h0v87.5l-105.9-122.8h-63.5c11.3,11.3,8.5,21.2,8.5,35.3h0v139.8c0,9.9-1.4,19.8-8.5,28.2h69.2c-11.3-11.3-8.5-21.2-8.5-35.3h0v-90.4l110.1,127.1h57.9c-5.6-7.1-8.5-16.9-8.5-26.8v-151.1l1.4-1.4h0Z" class="st0" id="N"></path>
        <path d="M2728.1,384.3v-145.4c0-9.9,1.4-21.2,8.5-29.6h-69.2c7.1,8.5,9.9,18.4,8.5,29.6v145.4c0,9.9-1.4,21.2-8.5,29.6h69.2c-5.6-8.5-8.5-18.4-8.5-29.6" class="st0" id="I"></path>
        <path d="M2537.5,207.8h-114.4c11.3,11.3,8.5,21.2,8.5,35.3h0v132.7h0c1.4,12.7,0,25.4-8.5,35.3h114.4c56.5-1.4,100.2-49.4,98.8-105.9-1.4-53.6-45.2-96-98.8-98.8v1.4h0ZM2537.5,358.8h-53.6v-98.8h53.6c26.8,0,49.4,22.6,49.4,49.4s-22.6,49.4-49.4,49.4Z" class="st0" id="D"></path>
        <path d="M2345.5,353.2c24-14.1,39.5-39.5,40.9-67.8,0-42.4-32.5-76.2-74.8-77.6h-135.5c7.1,8.5,9.9,18.4,8.5,29.6v146.8c0,9.9-1.4,19.8-8.5,28.2h69.2c-5.6-5.6-8.5-14.1-8.5-22.6v-26.8h46.6l43.8,49.4h69.2l-52.2-57.9,1.4-1.4h0ZM2311.6,310.8h-74.8v-53.6h74.8c12.7,1.4,21.2,12.7,21.2,26.8,2.8,12.7-5.6,25.4-18.4,26.8h-2.8Z" class="st0" id="R"></path>
        <path d="M2057.5,207.8h-72c5.6,8.5,5.6,19.8,0,29.6l-84.7,175.1h67.8c-4.2-4.2-4.2-9.9-1.4-14.1l7.1-14.1h110.1l7.1,14.1c1.4,7.1,1.4,11.3-1.4,14.1h67.8l-100.2-204.7h-.2ZM1998.2,330.6l29.6-62.1,29.6,62.1h-59.3,0Z" class="st0" id="A"></path>
        <path d="M1871.1,387.1v-152.5c0-9.9,2.8-18.4,8.5-25.4h-69.2c11.3,11.3,8.5,21.2,8.5,35.3h0v87.5l-105.9-122.8h-63.5c11.3,11.3,8.5,21.2,8.5,35.3h0v139.8c0,9.9-1.4,19.8-8.5,28.2h69.2c-11.3-11.3-8.5-21.2-8.5-35.3h0v-88.9l110.1,127.1h59.3c-4.2-8.5-8.5-16.9-9.9-25.4" class="st0" id="N-2"></path>
        <path d="M1652.3,467.5l8.5,19.8c-42.4,15.5-84.7,25.4-129.9,29.6l-12.7-330.4,110.1-14.1-111.5-15.5v-33.9c26.8-5.6,46.6-31.1,46.6-59.3s-25.4-60.7-59.3-60.7h0c-32.5,0-59.3,26.8-59.3,59.3s19.8,53.6,48,59.3v33.9c-1.4,0-112.9,15.5-112.9,15.5l110.1,14.1-12.7,330.4c-43.8-5.6-87.5-15.5-129.9-29.6l8.5-19.8-110.1-11.3,84.7,67.8,8.5-19.8,166.6,69.2,166.6-70.6,8.5,19.8,84.7-67.8-111.5,11.3-1.4,2.8h-.2ZM1468.9,61c0-18.4,15.5-33.9,33.9-33.9s33.9,15.5,33.9,33.9-15.5,33.9-33.9,33.9-33.9-14.1-33.9-32.5h0v-1.4Z" class="st0" id="anchor"></path>
        <path d="M1322.1,255.8c9.9,0,18.4,2.8,25.4,8.5v-56.5h-196.2c11.3,11.3,8.5,21.2,8.5,35.3h0v132.7h0c1.4,12.7,0,25.4-8.5,35.3h196.2v-57.9c-7.1,5.6-16.9,8.5-25.4,8.5h-110.1v-28.2h103.1v-45.2h-103.1v-29.6h110.1v-2.8h0Z" class="st0" id="E"></path>
        <path d="M956.4,268.5c0-8.5,7.1-14.1,43.8-14.1s40.9,2.8,62.1,8.5c7.1,0,12.7,5.6,16.9,12.7l22.6-53.6c-7.1,0-14.1,0-21.2-1.4-29.6-9.9-59.3-14.1-90.4-14.1-80.5,0-88.9,49.4-88.9,63.5,0,43.8,42.4,56.5,88.9,62.1,46.6,5.6,67.8,1.4,64.9,19.8-1.4,8.5-19.8,15.5-55.1,15.5s-43.8-5.6-63.5-14.1h0c-7.1-5.6-12.7-7.1-16.9-14.1l-29.6,52.2c7.1,0,12.7,0,19.8,1.4,29.6,14.1,62.1,21.2,96,21.2,69.2,0,98.8-33.9,98.8-67.8s-42.4-55.1-87.5-59.3c-19.8-1.4-59.3,1.4-59.3-15.5" class="st0" id="S"></path>
        <path d="M712.2,268.5c0-8.5,7.1-14.1,43.8-14.1s40.9,2.8,62.1,8.5c7.1,0,12.7,5.6,15.5,12.7l22.6-53.6c-7.1,0-14.1,0-21.2-1.4-28.2-9.9-59.3-14.1-88.9-14.1-80.5,0-88.9,49.4-88.9,63.5,0,43.8,42.4,56.5,88.9,62.1,46.6,5.6,67.8,1.4,64.9,19.8-1.4,8.5-19.8,15.5-55.1,15.5s-43.8-5.6-63.5-14.1h0c-7.1-5.6-12.7-7.1-16.9-14.1l-29.6,53.6c7.1,0,12.7,0,19.8,1.4,31.1,12.7,63.5,19.8,96,19.8,69.2,0,98.8-33.9,98.8-67.8s-42.4-55.1-87.5-59.3c-22.6-1.4-62.1,1.4-62.1-15.5" class="st0" id="S-2"></path>
        <path d="M556.9,332l90.4-124.2h-76.2c4.2,2.8,5.6,8.5,4.2,12.7h0c0,1.4-2.8,2.8-4.2,4.2h0l-40.9,53.6-42.4-56.5c-4.2-4.2-2.8-9.9,0-14.1h-76.2l90.4,124.2v55.1c0,8.5-1.4,16.9-7.1,24h69.2c-5.6-7.1-8.5-16.9-8.5-25.4v-53.6h-1.4,2.8,0Z" class="st0" id="Y"></path>
        <path d="M332.4,233.2c0-9.9,2.8-18.4,8.5-25.4h-69.2c5.6,7.1,8.5,16.9,8.5,25.4v152.5c0,9.9-2.8,18.4-8.5,25.4h180.7v-62.1c-7.1,5.6-16.9,8.5-25.4,8.5h-91.8v-124.2h-2.8Z" class="st0" id="L"></path>
        <path d="M226.5,233.2c0-9.9,2.8-18.4,8.5-25.4h-70.6c7.1,7.1,9.9,18.4,8.5,28.2v88.9c0,8.5-2.8,15.5-8.5,21.2-8.5,11.3-25.4,14.1-46.6,14.1s-33.9-4.2-46.6-14.1c-5.6-5.6-8.5-14.1-8.5-22.6v-91.8c0-9.9,2.8-18.4,8.5-25.4H2c5.6,7.1,8.5,16.9,8.5,25.4v90.4c0,22.6,8.5,43.8,22.6,60.7,12.7,14.1,40.9,29.6,84.7,29.6s60.7-8.5,84.7-29.6c14.1-16.9,22.6-38.1,22.6-59.3v-88.9h2.8l-1.4-1.4h0Z" class="st0" id="U"></path>
      </g>
    </g>
  </g>
</svg>