<svg viewBox="0 0 9000 3400" xmlns:xlink="http://www.w3.org/1999/xlink" version="1.1" xmlns="http://www.w3.org/2000/svg" id="Layer_1">
  
  <defs>
    <style>
      .st0 {
        fill: #fff;
        fill-rule: evenodd;
      }
    </style>
  </defs>
  <g id="Symbols">
    <path d="M3541.1,1509.1l1139.8,1103v-1076.4l257-.6v1670.3l-1139.8-1101.9v1075.8l-257-.6v-1669.7ZM3257.9,1535.5v232.6h-850.6l-1.3,469.6h723.4v232.6h-723.4v476.3h851.9v232.7h-1108.8v-1643.6h1108.8ZM5478,1535.4v1643.6h-257v-1643.6h257ZM6870.1,1535.4v232.6h-424.8v1411.1h-259.2v-1411.1h-424.8v-232.6h1108.8ZM7410.3,1535.4v702.2h882.8v-702.2h256.9v1643.6h-256.9v-708.8h-882.8v708.8h-257v-1643.6h257ZM1875.6,1535.3l-954.7,1411.3h944.9v232.3H450l954.7-1411.3h-820.1v-232.3h1290.9ZM4500.1,194l131.3,404.1h424.9l-343.8,249.7,131.3,404.1-343.7-249.8-343.8,249.8,131.3-404.1-343.7-249.7h424.9l131.3-404.1Z" class="st0" id="Combined-Shape"></path>
  </g>
</svg>